ISO-10303-21;
HEADER;
/* Generated by software containing ST-Developer
 * from STEP Tools, Inc. (www.steptools.com) 
 */

FILE_DESCRIPTION(
/* description */ ('KiCad electronic assembly'),
/* implementation_level */ '2;1');

FILE_NAME(
/* name */ 'HexahubV2-top.step',
/* time_stamp */ '2026-05-25T00:05:08+05:30',
/* author */ (''),
/* organization */ (''),
/* preprocessor_version */ 'ST-DEVELOPER v20.1',
/* originating_system */ 'Autodesk Translation Framework v15.8.0.0',
/* authorisation */ '');

FILE_SCHEMA (('AUTOMOTIVE_DESIGN { 1 0 10303 214 3 1 1 }'));
ENDSEC;

DATA;
#10=MECHANICAL_DESIGN_GEOMETRIC_PRESENTATION_REPRESENTATION('',(#129),#1684);
#11=SHAPE_REPRESENTATION_RELATIONSHIP('SRR','None',#1742,#12);
#12=ADVANCED_BREP_SHAPE_REPRESENTATION('',(#130),#1672);
#13=ITEM_DEFINED_TRANSFORMATION($,$,#1046,#1095);
#14=ITEM_DEFINED_TRANSFORMATION($,$,#1049,#1096);
#15=ITEM_DEFINED_TRANSFORMATION($,$,#1040,#1097);
#16=ITEM_DEFINED_TRANSFORMATION($,$,#1050,#1098);
#17=ITEM_DEFINED_TRANSFORMATION($,$,#1048,#1099);
#18=ITEM_DEFINED_TRANSFORMATION($,$,#1045,#1100);
#19=ITEM_DEFINED_TRANSFORMATION($,$,#1047,#1101);
#20=ITEM_DEFINED_TRANSFORMATION($,$,#1041,#1102);
#21=ITEM_DEFINED_TRANSFORMATION($,$,#1042,#1103);
#22=ITEM_DEFINED_TRANSFORMATION($,$,#1043,#1104);
#23=ITEM_DEFINED_TRANSFORMATION($,$,#1044,#1105);
#24=ITEM_DEFINED_TRANSFORMATION($,$,#1047,#1106);
#25=ITEM_DEFINED_TRANSFORMATION($,$,#1047,#1107);
#26=ITEM_DEFINED_TRANSFORMATION($,$,#1045,#1108);
#27=ITEM_DEFINED_TRANSFORMATION($,$,#1048,#1109);
#28=ITEM_DEFINED_TRANSFORMATION($,$,#1046,#1110);
#29=ITEM_DEFINED_TRANSFORMATION($,$,#1049,#1111);
#30=ITEM_DEFINED_TRANSFORMATION($,$,#1050,#1112);
#31=ITEM_DEFINED_TRANSFORMATION($,$,#1049,#1113);
#32=ITEM_DEFINED_TRANSFORMATION($,$,#1048,#1114);
#33=ITEM_DEFINED_TRANSFORMATION($,$,#1048,#1115);
#34=ITEM_DEFINED_TRANSFORMATION($,$,#1048,#1116);
#35=ITEM_DEFINED_TRANSFORMATION($,$,#1047,#1117);
#36=ITEM_DEFINED_TRANSFORMATION($,$,#1048,#1118);
#37=ITEM_DEFINED_TRANSFORMATION($,$,#1050,#1119);
#38=ITEM_DEFINED_TRANSFORMATION($,$,#1049,#1120);
#39=ITEM_DEFINED_TRANSFORMATION($,$,#1050,#1121);
#40=ITEM_DEFINED_TRANSFORMATION($,$,#1049,#1122);
#41=ITEM_DEFINED_TRANSFORMATION($,$,#1050,#1123);
#42=(
REPRESENTATION_RELATIONSHIP($,$,#1749,#1742)
REPRESENTATION_RELATIONSHIP_WITH_TRANSFORMATION(#13)
SHAPE_REPRESENTATION_RELATIONSHIP()
);
#43=(
REPRESENTATION_RELATIONSHIP($,$,#1752,#1742)
REPRESENTATION_RELATIONSHIP_WITH_TRANSFORMATION(#14)
SHAPE_REPRESENTATION_RELATIONSHIP()
);
#44=(
REPRESENTATION_RELATIONSHIP($,$,#1743,#1742)
REPRESENTATION_RELATIONSHIP_WITH_TRANSFORMATION(#15)
SHAPE_REPRESENTATION_RELATIONSHIP()
);
#45=(
REPRESENTATION_RELATIONSHIP($,$,#1753,#1742)
REPRESENTATION_RELATIONSHIP_WITH_TRANSFORMATION(#16)
SHAPE_REPRESENTATION_RELATIONSHIP()
);
#46=(
REPRESENTATION_RELATIONSHIP($,$,#1751,#1742)
REPRESENTATION_RELATIONSHIP_WITH_TRANSFORMATION(#17)
SHAPE_REPRESENTATION_RELATIONSHIP()
);
#47=(
REPRESENTATION_RELATIONSHIP($,$,#1748,#1742)
REPRESENTATION_RELATIONSHIP_WITH_TRANSFORMATION(#18)
SHAPE_REPRESENTATION_RELATIONSHIP()
);
#48=(
REPRESENTATION_RELATIONSHIP($,$,#1750,#1742)
REPRESENTATION_RELATIONSHIP_WITH_TRANSFORMATION(#19)
SHAPE_REPRESENTATION_RELATIONSHIP()
);
#49=(
REPRESENTATION_RELATIONSHIP($,$,#1744,#1742)
REPRESENTATION_RELATIONSHIP_WITH_TRANSFORMATION(#20)
SHAPE_REPRESENTATION_RELATIONSHIP()
);
#50=(
REPRESENTATION_RELATIONSHIP($,$,#1745,#1742)
REPRESENTATION_RELATIONSHIP_WITH_TRANSFORMATION(#21)
SHAPE_REPRESENTATION_RELATIONSHIP()
);
#51=(
REPRESENTATION_RELATIONSHIP($,$,#1746,#1742)
REPRESENTATION_RELATIONSHIP_WITH_TRANSFORMATION(#22)
SHAPE_REPRESENTATION_RELATIONSHIP()
);
#52=(
REPRESENTATION_RELATIONSHIP($,$,#1747,#1742)
REPRESENTATION_RELATIONSHIP_WITH_TRANSFORMATION(#23)
SHAPE_REPRESENTATION_RELATIONSHIP()
);
#53=(
REPRESENTATION_RELATIONSHIP($,$,#1750,#1742)
REPRESENTATION_RELATIONSHIP_WITH_TRANSFORMATION(#24)
SHAPE_REPRESENTATION_RELATIONSHIP()
);
#54=(
REPRESENTATION_RELATIONSHIP($,$,#1750,#1742)
REPRESENTATION_RELATIONSHIP_WITH_TRANSFORMATION(#25)
SHAPE_REPRESENTATION_RELATIONSHIP()
);
#55=(
REPRESENTATION_RELATIONSHIP($,$,#1748,#1742)
REPRESENTATION_RELATIONSHIP_WITH_TRANSFORMATION(#26)
SHAPE_REPRESENTATION_RELATIONSHIP()
);
#56=(
REPRESENTATION_RELATIONSHIP($,$,#1751,#1742)
REPRESENTATION_RELATIONSHIP_WITH_TRANSFORMATION(#27)
SHAPE_REPRESENTATION_RELATIONSHIP()
);
#57=(
REPRESENTATION_RELATIONSHIP($,$,#1749,#1742)
REPRESENTATION_RELATIONSHIP_WITH_TRANSFORMATION(#28)
SHAPE_REPRESENTATION_RELATIONSHIP()
);
#58=(
REPRESENTATION_RELATIONSHIP($,$,#1752,#1742)
REPRESENTATION_RELATIONSHIP_WITH_TRANSFORMATION(#29)
SHAPE_REPRESENTATION_RELATIONSHIP()
);
#59=(
REPRESENTATION_RELATIONSHIP($,$,#1753,#1742)
REPRESENTATION_RELATIONSHIP_WITH_TRANSFORMATION(#30)
SHAPE_REPRESENTATION_RELATIONSHIP()
);
#60=(
REPRESENTATION_RELATIONSHIP($,$,#1752,#1742)
REPRESENTATION_RELATIONSHIP_WITH_TRANSFORMATION(#31)
SHAPE_REPRESENTATION_RELATIONSHIP()
);
#61=(
REPRESENTATION_RELATIONSHIP($,$,#1751,#1742)
REPRESENTATION_RELATIONSHIP_WITH_TRANSFORMATION(#32)
SHAPE_REPRESENTATION_RELATIONSHIP()
);
#62=(
REPRESENTATION_RELATIONSHIP($,$,#1751,#1742)
REPRESENTATION_RELATIONSHIP_WITH_TRANSFORMATION(#33)
SHAPE_REPRESENTATION_RELATIONSHIP()
);
#63=(
REPRESENTATION_RELATIONSHIP($,$,#1751,#1742)
REPRESENTATION_RELATIONSHIP_WITH_TRANSFORMATION(#34)
SHAPE_REPRESENTATION_RELATIONSHIP()
);
#64=(
REPRESENTATION_RELATIONSHIP($,$,#1750,#1742)
REPRESENTATION_RELATIONSHIP_WITH_TRANSFORMATION(#35)
SHAPE_REPRESENTATION_RELATIONSHIP()
);
#65=(
REPRESENTATION_RELATIONSHIP($,$,#1751,#1742)
REPRESENTATION_RELATIONSHIP_WITH_TRANSFORMATION(#36)
SHAPE_REPRESENTATION_RELATIONSHIP()
);
#66=(
REPRESENTATION_RELATIONSHIP($,$,#1753,#1742)
REPRESENTATION_RELATIONSHIP_WITH_TRANSFORMATION(#37)
SHAPE_REPRESENTATION_RELATIONSHIP()
);
#67=(
REPRESENTATION_RELATIONSHIP($,$,#1752,#1742)
REPRESENTATION_RELATIONSHIP_WITH_TRANSFORMATION(#38)
SHAPE_REPRESENTATION_RELATIONSHIP()
);
#68=(
REPRESENTATION_RELATIONSHIP($,$,#1753,#1742)
REPRESENTATION_RELATIONSHIP_WITH_TRANSFORMATION(#39)
SHAPE_REPRESENTATION_RELATIONSHIP()
);
#69=(
REPRESENTATION_RELATIONSHIP($,$,#1752,#1742)
REPRESENTATION_RELATIONSHIP_WITH_TRANSFORMATION(#40)
SHAPE_REPRESENTATION_RELATIONSHIP()
);
#70=(
REPRESENTATION_RELATIONSHIP($,$,#1753,#1742)
REPRESENTATION_RELATIONSHIP_WITH_TRANSFORMATION(#41)
SHAPE_REPRESENTATION_RELATIONSHIP()
);
#71=CONTEXT_DEPENDENT_SHAPE_REPRESENTATION(#42,#1713);
#72=CONTEXT_DEPENDENT_SHAPE_REPRESENTATION(#43,#1714);
#73=CONTEXT_DEPENDENT_SHAPE_REPRESENTATION(#44,#1715);
#74=CONTEXT_DEPENDENT_SHAPE_REPRESENTATION(#45,#1716);
#75=CONTEXT_DEPENDENT_SHAPE_REPRESENTATION(#46,#1717);
#76=CONTEXT_DEPENDENT_SHAPE_REPRESENTATION(#47,#1718);
#77=CONTEXT_DEPENDENT_SHAPE_REPRESENTATION(#48,#1719);
#78=CONTEXT_DEPENDENT_SHAPE_REPRESENTATION(#49,#1720);
#79=CONTEXT_DEPENDENT_SHAPE_REPRESENTATION(#50,#1721);
#80=CONTEXT_DEPENDENT_SHAPE_REPRESENTATION(#51,#1722);
#81=CONTEXT_DEPENDENT_SHAPE_REPRESENTATION(#52,#1723);
#82=CONTEXT_DEPENDENT_SHAPE_REPRESENTATION(#53,#1724);
#83=CONTEXT_DEPENDENT_SHAPE_REPRESENTATION(#54,#1725);
#84=CONTEXT_DEPENDENT_SHAPE_REPRESENTATION(#55,#1726);
#85=CONTEXT_DEPENDENT_SHAPE_REPRESENTATION(#56,#1727);
#86=CONTEXT_DEPENDENT_SHAPE_REPRESENTATION(#57,#1728);
#87=CONTEXT_DEPENDENT_SHAPE_REPRESENTATION(#58,#1729);
#88=CONTEXT_DEPENDENT_SHAPE_REPRESENTATION(#59,#1730);
#89=CONTEXT_DEPENDENT_SHAPE_REPRESENTATION(#60,#1731);
#90=CONTEXT_DEPENDENT_SHAPE_REPRESENTATION(#61,#1732);
#91=CONTEXT_DEPENDENT_SHAPE_REPRESENTATION(#62,#1733);
#92=CONTEXT_DEPENDENT_SHAPE_REPRESENTATION(#63,#1734);
#93=CONTEXT_DEPENDENT_SHAPE_REPRESENTATION(#64,#1735);
#94=CONTEXT_DEPENDENT_SHAPE_REPRESENTATION(#65,#1736);
#95=CONTEXT_DEPENDENT_SHAPE_REPRESENTATION(#66,#1737);
#96=CONTEXT_DEPENDENT_SHAPE_REPRESENTATION(#67,#1738);
#97=CONTEXT_DEPENDENT_SHAPE_REPRESENTATION(#68,#1739);
#98=CONTEXT_DEPENDENT_SHAPE_REPRESENTATION(#69,#1740);
#99=CONTEXT_DEPENDENT_SHAPE_REPRESENTATION(#70,#1741);
#100=NEXT_ASSEMBLY_USAGE_OCCURRENCE('C_0402_1005Metric:1',
'C_0402_1005Metric:1','C_0402_1005Metric:1',#1755,#1762,
'C_0402_1005Metric:1');
#101=NEXT_ASSEMBLY_USAGE_OCCURRENCE('SOT-143:1','SOT-143:1','SOT-143:1',
#1755,#1765,'SOT-143:1');
#102=NEXT_ASSEMBLY_USAGE_OCCURRENCE('SL2.1A:1','SL2.1A:1','SL2.1A:1',#1755,
#1756,'SL2.1A:1');
#103=NEXT_ASSEMBLY_USAGE_OCCURRENCE('Fuse_1206_3216Metric:1',
'Fuse_1206_3216Metric:1','Fuse_1206_3216Metric:1',#1755,#1766,
'Fuse_1206_3216Metric:1');
#104=NEXT_ASSEMBLY_USAGE_OCCURRENCE('C_0603_1608Metric:1',
'C_0603_1608Metric:1','C_0603_1608Metric:1',#1755,#1764,
'C_0603_1608Metric:1');
#105=NEXT_ASSEMBLY_USAGE_OCCURRENCE('R_0603_1608Metric:1',
'R_0603_1608Metric:1','R_0603_1608Metric:1',#1755,#1761,
'R_0603_1608Metric:1');
#106=NEXT_ASSEMBLY_USAGE_OCCURRENCE('USB_A_Molex_67643_Horizontal:1',
'USB_A_Molex_67643_Horizontal:1','USB_A_Molex_67643_Horizontal:1',#1755,
#1763,'USB_A_Molex_67643_Horizontal:1');
#107=NEXT_ASSEMBLY_USAGE_OCCURRENCE('Crystal_SMD_3225-4Pin_3.2x2.5mm:1',
'Crystal_SMD_3225-4Pin_3.2x2.5mm:1','Crystal_SMD_3225-4Pin_3.2x2.5mm:1',
#1755,#1757,'Crystal_SMD_3225-4Pin_3.2x2.5mm:1');
#108=NEXT_ASSEMBLY_USAGE_OCCURRENCE('HRO  TYPE-C-31-M-12:1',
'HRO  TYPE-C-31-M-12:1','HRO  TYPE-C-31-M-12:1',#1755,#1758,
'HRO  TYPE-C-31-M-12:1');
#109=NEXT_ASSEMBLY_USAGE_OCCURRENCE('HexaHubV2_copper:1',
'HexaHubV2_copper:1','HexaHubV2_copper:1',#1755,#1759,
'HexaHubV2_copper:1');
#110=NEXT_ASSEMBLY_USAGE_OCCURRENCE('HexaHubV2_PCB:1','HexaHubV2_PCB:1',
'HexaHubV2_PCB:1',#1755,#1760,'HexaHubV2_PCB:1');
#111=NEXT_ASSEMBLY_USAGE_OCCURRENCE('USB_A_Molex_67643_Horizontal:2',
'USB_A_Molex_67643_Horizontal:2','USB_A_Molex_67643_Horizontal:2',#1755,
#1763,'USB_A_Molex_67643_Horizontal:2');
#112=NEXT_ASSEMBLY_USAGE_OCCURRENCE('USB_A_Molex_67643_Horizontal:3',
'USB_A_Molex_67643_Horizontal:3','USB_A_Molex_67643_Horizontal:3',#1755,
#1763,'USB_A_Molex_67643_Horizontal:3');
#113=NEXT_ASSEMBLY_USAGE_OCCURRENCE('R_0603_1608Metric:2',
'R_0603_1608Metric:2','R_0603_1608Metric:2',#1755,#1761,
'R_0603_1608Metric:2');
#114=NEXT_ASSEMBLY_USAGE_OCCURRENCE('C_0603_1608Metric:2',
'C_0603_1608Metric:2','C_0603_1608Metric:2',#1755,#1764,
'C_0603_1608Metric:2');
#115=NEXT_ASSEMBLY_USAGE_OCCURRENCE('C_0402_1005Metric:2',
'C_0402_1005Metric:2','C_0402_1005Metric:2',#1755,#1762,
'C_0402_1005Metric:2');
#116=NEXT_ASSEMBLY_USAGE_OCCURRENCE('SOT-143:2','SOT-143:2','SOT-143:2',
#1755,#1765,'SOT-143:2');
#117=NEXT_ASSEMBLY_USAGE_OCCURRENCE('Fuse_1206_3216Metric:2',
'Fuse_1206_3216Metric:2','Fuse_1206_3216Metric:2',#1755,#1766,
'Fuse_1206_3216Metric:2');
#118=NEXT_ASSEMBLY_USAGE_OCCURRENCE('SOT-143:3','SOT-143:3','SOT-143:3',
#1755,#1765,'SOT-143:3');
#119=NEXT_ASSEMBLY_USAGE_OCCURRENCE('C_0603_1608Metric:3',
'C_0603_1608Metric:3','C_0603_1608Metric:3',#1755,#1764,
'C_0603_1608Metric:3');
#120=NEXT_ASSEMBLY_USAGE_OCCURRENCE('C_0603_1608Metric:4',
'C_0603_1608Metric:4','C_0603_1608Metric:4',#1755,#1764,
'C_0603_1608Metric:4');
#121=NEXT_ASSEMBLY_USAGE_OCCURRENCE('C_0603_1608Metric:5',
'C_0603_1608Metric:5','C_0603_1608Metric:5',#1755,#1764,
'C_0603_1608Metric:5');
#122=NEXT_ASSEMBLY_USAGE_OCCURRENCE('USB_A_Molex_67643_Horizontal:4',
'USB_A_Molex_67643_Horizontal:4','USB_A_Molex_67643_Horizontal:4',#1755,
#1763,'USB_A_Molex_67643_Horizontal:4');
#123=NEXT_ASSEMBLY_USAGE_OCCURRENCE('C_0603_1608Metric:6',
'C_0603_1608Metric:6','C_0603_1608Metric:6',#1755,#1764,
'C_0603_1608Metric:6');
#124=NEXT_ASSEMBLY_USAGE_OCCURRENCE('Fuse_1206_3216Metric:3',
'Fuse_1206_3216Metric:3','Fuse_1206_3216Metric:3',#1755,#1766,
'Fuse_1206_3216Metric:3');
#125=NEXT_ASSEMBLY_USAGE_OCCURRENCE('SOT-143:4','SOT-143:4','SOT-143:4',
#1755,#1765,'SOT-143:4');
#126=NEXT_ASSEMBLY_USAGE_OCCURRENCE('Fuse_1206_3216Metric:4',
'Fuse_1206_3216Metric:4','Fuse_1206_3216Metric:4',#1755,#1766,
'Fuse_1206_3216Metric:4');
#127=NEXT_ASSEMBLY_USAGE_OCCURRENCE('SOT-143:5','SOT-143:5','SOT-143:5',
#1755,#1765,'SOT-143:5');
#128=NEXT_ASSEMBLY_USAGE_OCCURRENCE('Fuse_1206_3216Metric:5',
'Fuse_1206_3216Metric:5','Fuse_1206_3216Metric:5',#1755,#1766,
'Fuse_1206_3216Metric:5');
#129=STYLED_ITEM('',(#1808),#130);
#130=MANIFOLD_SOLID_BREP('Top',#916);
#131=FACE_BOUND('',#226,.T.);
#132=FACE_BOUND('',#227,.T.);
#133=FACE_BOUND('',#228,.T.);
#134=FACE_BOUND('',#229,.T.);
#135=FACE_BOUND('',#230,.T.);
#136=FACE_BOUND('',#231,.T.);
#137=FACE_BOUND('',#232,.T.);
#138=FACE_OUTER_BOUND('',#182,.T.);
#139=FACE_OUTER_BOUND('',#183,.T.);
#140=FACE_OUTER_BOUND('',#184,.T.);
#141=FACE_OUTER_BOUND('',#185,.T.);
#142=FACE_OUTER_BOUND('',#186,.T.);
#143=FACE_OUTER_BOUND('',#187,.T.);
#144=FACE_OUTER_BOUND('',#188,.T.);
#145=FACE_OUTER_BOUND('',#189,.T.);
#146=FACE_OUTER_BOUND('',#190,.T.);
#147=FACE_OUTER_BOUND('',#191,.T.);
#148=FACE_OUTER_BOUND('',#192,.T.);
#149=FACE_OUTER_BOUND('',#193,.T.);
#150=FACE_OUTER_BOUND('',#194,.T.);
#151=FACE_OUTER_BOUND('',#195,.T.);
#152=FACE_OUTER_BOUND('',#196,.T.);
#153=FACE_OUTER_BOUND('',#197,.T.);
#154=FACE_OUTER_BOUND('',#198,.T.);
#155=FACE_OUTER_BOUND('',#199,.T.);
#156=FACE_OUTER_BOUND('',#200,.T.);
#157=FACE_OUTER_BOUND('',#201,.T.);
#158=FACE_OUTER_BOUND('',#202,.T.);
#159=FACE_OUTER_BOUND('',#203,.T.);
#160=FACE_OUTER_BOUND('',#204,.T.);
#161=FACE_OUTER_BOUND('',#205,.T.);
#162=FACE_OUTER_BOUND('',#206,.T.);
#163=FACE_OUTER_BOUND('',#207,.T.);
#164=FACE_OUTER_BOUND('',#208,.T.);
#165=FACE_OUTER_BOUND('',#209,.T.);
#166=FACE_OUTER_BOUND('',#210,.T.);
#167=FACE_OUTER_BOUND('',#211,.T.);
#168=FACE_OUTER_BOUND('',#212,.T.);
#169=FACE_OUTER_BOUND('',#213,.T.);
#170=FACE_OUTER_BOUND('',#214,.T.);
#171=FACE_OUTER_BOUND('',#215,.T.);
#172=FACE_OUTER_BOUND('',#216,.T.);
#173=FACE_OUTER_BOUND('',#217,.T.);
#174=FACE_OUTER_BOUND('',#218,.T.);
#175=FACE_OUTER_BOUND('',#219,.T.);
#176=FACE_OUTER_BOUND('',#220,.T.);
#177=FACE_OUTER_BOUND('',#221,.T.);
#178=FACE_OUTER_BOUND('',#222,.T.);
#179=FACE_OUTER_BOUND('',#223,.T.);
#180=FACE_OUTER_BOUND('',#224,.T.);
#181=FACE_OUTER_BOUND('',#225,.T.);
#182=EDGE_LOOP('',(#618,#619,#620,#621));
#183=EDGE_LOOP('',(#622,#623,#624,#625));
#184=EDGE_LOOP('',(#626,#627,#628,#629));
#185=EDGE_LOOP('',(#630,#631,#632,#633));
#186=EDGE_LOOP('',(#634,#635,#636,#637));
#187=EDGE_LOOP('',(#638,#639,#640,#641));
#188=EDGE_LOOP('',(#642,#643,#644,#645));
#189=EDGE_LOOP('',(#646,#647,#648,#649));
#190=EDGE_LOOP('',(#650,#651,#652,#653));
#191=EDGE_LOOP('',(#654,#655,#656,#657));
#192=EDGE_LOOP('',(#658,#659,#660,#661));
#193=EDGE_LOOP('',(#662,#663,#664,#665));
#194=EDGE_LOOP('',(#666,#667,#668,#669));
#195=EDGE_LOOP('',(#670,#671,#672,#673));
#196=EDGE_LOOP('',(#674,#675,#676,#677));
#197=EDGE_LOOP('',(#678,#679,#680,#681));
#198=EDGE_LOOP('',(#682,#683,#684,#685));
#199=EDGE_LOOP('',(#686,#687,#688,#689));
#200=EDGE_LOOP('',(#690,#691,#692,#693));
#201=EDGE_LOOP('',(#694,#695,#696,#697));
#202=EDGE_LOOP('',(#698,#699,#700,#701));
#203=EDGE_LOOP('',(#702,#703,#704,#705));
#204=EDGE_LOOP('',(#706,#707,#708,#709));
#205=EDGE_LOOP('',(#710,#711,#712,#713));
#206=EDGE_LOOP('',(#714,#715,#716,#717));
#207=EDGE_LOOP('',(#718,#719,#720,#721));
#208=EDGE_LOOP('',(#722,#723,#724,#725));
#209=EDGE_LOOP('',(#726,#727,#728,#729));
#210=EDGE_LOOP('',(#730,#731,#732,#733));
#211=EDGE_LOOP('',(#734,#735,#736,#737));
#212=EDGE_LOOP('',(#738,#739,#740,#741));
#213=EDGE_LOOP('',(#742,#743,#744,#745));
#214=EDGE_LOOP('',(#746,#747,#748,#749));
#215=EDGE_LOOP('',(#750,#751,#752,#753));
#216=EDGE_LOOP('',(#754,#755,#756,#757));
#217=EDGE_LOOP('',(#758,#759,#760,#761));
#218=EDGE_LOOP('',(#762,#763,#764,#765));
#219=EDGE_LOOP('',(#766,#767,#768,#769));
#220=EDGE_LOOP('',(#770,#771,#772,#773));
#221=EDGE_LOOP('',(#774,#775,#776,#777));
#222=EDGE_LOOP('',(#778,#779,#780,#781));
#223=EDGE_LOOP('',(#782,#783,#784,#785));
#224=EDGE_LOOP('',(#786,#787,#788,#789,#790,#791,#792));
#225=EDGE_LOOP('',(#793,#794,#795,#796,#797,#798,#799));
#226=EDGE_LOOP('',(#800,#801,#802,#803));
#227=EDGE_LOOP('',(#804,#805,#806,#807));
#228=EDGE_LOOP('',(#808,#809,#810,#811));
#229=EDGE_LOOP('',(#812,#813,#814,#815));
#230=EDGE_LOOP('',(#816,#817,#818,#819));
#231=EDGE_LOOP('',(#820,#821,#822,#823));
#232=EDGE_LOOP('',(#824,#825,#826,#827));
#233=LINE('',#1414,#338);
#234=LINE('',#1416,#339);
#235=LINE('',#1418,#340);
#236=LINE('',#1419,#341);
#237=LINE('',#1422,#342);
#238=LINE('',#1424,#343);
#239=LINE('',#1425,#344);
#240=LINE('',#1428,#345);
#241=LINE('',#1430,#346);
#242=LINE('',#1431,#347);
#243=LINE('',#1433,#348);
#244=LINE('',#1434,#349);
#245=LINE('',#1439,#350);
#246=LINE('',#1441,#351);
#247=LINE('',#1443,#352);
#248=LINE('',#1444,#353);
#249=LINE('',#1447,#354);
#250=LINE('',#1449,#355);
#251=LINE('',#1450,#356);
#252=LINE('',#1453,#357);
#253=LINE('',#1455,#358);
#254=LINE('',#1456,#359);
#255=LINE('',#1458,#360);
#256=LINE('',#1459,#361);
#257=LINE('',#1464,#362);
#258=LINE('',#1466,#363);
#259=LINE('',#1468,#364);
#260=LINE('',#1469,#365);
#261=LINE('',#1472,#366);
#262=LINE('',#1474,#367);
#263=LINE('',#1475,#368);
#264=LINE('',#1478,#369);
#265=LINE('',#1480,#370);
#266=LINE('',#1481,#371);
#267=LINE('',#1483,#372);
#268=LINE('',#1484,#373);
#269=LINE('',#1489,#374);
#270=LINE('',#1491,#375);
#271=LINE('',#1493,#376);
#272=LINE('',#1494,#377);
#273=LINE('',#1497,#378);
#274=LINE('',#1499,#379);
#275=LINE('',#1500,#380);
#276=LINE('',#1503,#381);
#277=LINE('',#1505,#382);
#278=LINE('',#1506,#383);
#279=LINE('',#1508,#384);
#280=LINE('',#1509,#385);
#281=LINE('',#1514,#386);
#282=LINE('',#1516,#387);
#283=LINE('',#1518,#388);
#284=LINE('',#1519,#389);
#285=LINE('',#1522,#390);
#286=LINE('',#1524,#391);
#287=LINE('',#1525,#392);
#288=LINE('',#1528,#393);
#289=LINE('',#1530,#394);
#290=LINE('',#1531,#395);
#291=LINE('',#1533,#396);
#292=LINE('',#1534,#397);
#293=LINE('',#1539,#398);
#294=LINE('',#1541,#399);
#295=LINE('',#1543,#400);
#296=LINE('',#1544,#401);
#297=LINE('',#1547,#402);
#298=LINE('',#1549,#403);
#299=LINE('',#1550,#404);
#300=LINE('',#1553,#405);
#301=LINE('',#1555,#406);
#302=LINE('',#1556,#407);
#303=LINE('',#1558,#408);
#304=LINE('',#1559,#409);
#305=LINE('',#1564,#410);
#306=LINE('',#1566,#411);
#307=LINE('',#1568,#412);
#308=LINE('',#1569,#413);
#309=LINE('',#1572,#414);
#310=LINE('',#1574,#415);
#311=LINE('',#1575,#416);
#312=LINE('',#1578,#417);
#313=LINE('',#1580,#418);
#314=LINE('',#1581,#419);
#315=LINE('',#1583,#420);
#316=LINE('',#1584,#421);
#317=LINE('',#1589,#422);
#318=LINE('',#1591,#423);
#319=LINE('',#1593,#424);
#320=LINE('',#1594,#425);
#321=LINE('',#1597,#426);
#322=LINE('',#1599,#427);
#323=LINE('',#1600,#428);
#324=LINE('',#1603,#429);
#325=LINE('',#1605,#430);
#326=LINE('',#1606,#431);
#327=LINE('',#1609,#432);
#328=LINE('',#1611,#433);
#329=LINE('',#1612,#434);
#330=LINE('',#1615,#435);
#331=LINE('',#1617,#436);
#332=LINE('',#1618,#437);
#333=LINE('',#1621,#438);
#334=LINE('',#1623,#439);
#335=LINE('',#1624,#440);
#336=LINE('',#1626,#441);
#337=LINE('',#1627,#442);
#338=VECTOR('',#1150,10.);
#339=VECTOR('',#1151,10.);
#340=VECTOR('',#1152,10.);
#341=VECTOR('',#1153,10.);
#342=VECTOR('',#1156,10.);
#343=VECTOR('',#1157,10.);
#344=VECTOR('',#1158,10.);
#345=VECTOR('',#1161,10.);
#346=VECTOR('',#1162,10.);
#347=VECTOR('',#1163,10.);
#348=VECTOR('',#1166,10.);
#349=VECTOR('',#1167,10.);
#350=VECTOR('',#1172,10.);
#351=VECTOR('',#1173,10.);
#352=VECTOR('',#1174,10.);
#353=VECTOR('',#1175,10.);
#354=VECTOR('',#1178,10.);
#355=VECTOR('',#1179,10.);
#356=VECTOR('',#1180,10.);
#357=VECTOR('',#1183,10.);
#358=VECTOR('',#1184,10.);
#359=VECTOR('',#1185,10.);
#360=VECTOR('',#1188,10.);
#361=VECTOR('',#1189,10.);
#362=VECTOR('',#1194,10.);
#363=VECTOR('',#1195,10.);
#364=VECTOR('',#1196,10.);
#365=VECTOR('',#1197,10.);
#366=VECTOR('',#1200,10.);
#367=VECTOR('',#1201,10.);
#368=VECTOR('',#1202,10.);
#369=VECTOR('',#1205,10.);
#370=VECTOR('',#1206,10.);
#371=VECTOR('',#1207,10.);
#372=VECTOR('',#1210,10.);
#373=VECTOR('',#1211,10.);
#374=VECTOR('',#1216,10.);
#375=VECTOR('',#1217,10.);
#376=VECTOR('',#1218,10.);
#377=VECTOR('',#1219,10.);
#378=VECTOR('',#1222,10.);
#379=VECTOR('',#1223,10.);
#380=VECTOR('',#1224,10.);
#381=VECTOR('',#1227,10.);
#382=VECTOR('',#1228,10.);
#383=VECTOR('',#1229,10.);
#384=VECTOR('',#1232,10.);
#385=VECTOR('',#1233,10.);
#386=VECTOR('',#1238,10.);
#387=VECTOR('',#1239,10.);
#388=VECTOR('',#1240,10.);
#389=VECTOR('',#1241,10.);
#390=VECTOR('',#1244,10.);
#391=VECTOR('',#1245,10.);
#392=VECTOR('',#1246,10.);
#393=VECTOR('',#1249,10.);
#394=VECTOR('',#1250,10.);
#395=VECTOR('',#1251,10.);
#396=VECTOR('',#1254,10.);
#397=VECTOR('',#1255,10.);
#398=VECTOR('',#1260,10.);
#399=VECTOR('',#1261,10.);
#400=VECTOR('',#1262,10.);
#401=VECTOR('',#1263,10.);
#402=VECTOR('',#1266,10.);
#403=VECTOR('',#1267,10.);
#404=VECTOR('',#1268,10.);
#405=VECTOR('',#1271,10.);
#406=VECTOR('',#1272,10.);
#407=VECTOR('',#1273,10.);
#408=VECTOR('',#1276,10.);
#409=VECTOR('',#1277,10.);
#410=VECTOR('',#1282,10.);
#411=VECTOR('',#1283,10.);
#412=VECTOR('',#1284,10.);
#413=VECTOR('',#1285,10.);
#414=VECTOR('',#1288,10.);
#415=VECTOR('',#1289,10.);
#416=VECTOR('',#1290,10.);
#417=VECTOR('',#1293,10.);
#418=VECTOR('',#1294,10.);
#419=VECTOR('',#1295,10.);
#420=VECTOR('',#1298,10.);
#421=VECTOR('',#1299,10.);
#422=VECTOR('',#1304,10.);
#423=VECTOR('',#1305,10.);
#424=VECTOR('',#1306,10.);
#425=VECTOR('',#1307,10.);
#426=VECTOR('',#1310,10.);
#427=VECTOR('',#1311,10.);
#428=VECTOR('',#1312,10.);
#429=VECTOR('',#1315,10.);
#430=VECTOR('',#1316,10.);
#431=VECTOR('',#1317,10.);
#432=VECTOR('',#1320,10.);
#433=VECTOR('',#1321,10.);
#434=VECTOR('',#1322,10.);
#435=VECTOR('',#1325,10.);
#436=VECTOR('',#1326,10.);
#437=VECTOR('',#1327,10.);
#438=VECTOR('',#1330,10.);
#439=VECTOR('',#1331,10.);
#440=VECTOR('',#1332,10.);
#441=VECTOR('',#1335,10.);
#442=VECTOR('',#1336,10.);
#443=VERTEX_POINT('',#1412);
#444=VERTEX_POINT('',#1413);
#445=VERTEX_POINT('',#1415);
#446=VERTEX_POINT('',#1417);
#447=VERTEX_POINT('',#1421);
#448=VERTEX_POINT('',#1423);
#449=VERTEX_POINT('',#1427);
#450=VERTEX_POINT('',#1429);
#451=VERTEX_POINT('',#1437);
#452=VERTEX_POINT('',#1438);
#453=VERTEX_POINT('',#1440);
#454=VERTEX_POINT('',#1442);
#455=VERTEX_POINT('',#1446);
#456=VERTEX_POINT('',#1448);
#457=VERTEX_POINT('',#1452);
#458=VERTEX_POINT('',#1454);
#459=VERTEX_POINT('',#1462);
#460=VERTEX_POINT('',#1463);
#461=VERTEX_POINT('',#1465);
#462=VERTEX_POINT('',#1467);
#463=VERTEX_POINT('',#1471);
#464=VERTEX_POINT('',#1473);
#465=VERTEX_POINT('',#1477);
#466=VERTEX_POINT('',#1479);
#467=VERTEX_POINT('',#1487);
#468=VERTEX_POINT('',#1488);
#469=VERTEX_POINT('',#1490);
#470=VERTEX_POINT('',#1492);
#471=VERTEX_POINT('',#1496);
#472=VERTEX_POINT('',#1498);
#473=VERTEX_POINT('',#1502);
#474=VERTEX_POINT('',#1504);
#475=VERTEX_POINT('',#1512);
#476=VERTEX_POINT('',#1513);
#477=VERTEX_POINT('',#1515);
#478=VERTEX_POINT('',#1517);
#479=VERTEX_POINT('',#1521);
#480=VERTEX_POINT('',#1523);
#481=VERTEX_POINT('',#1527);
#482=VERTEX_POINT('',#1529);
#483=VERTEX_POINT('',#1537);
#484=VERTEX_POINT('',#1538);
#485=VERTEX_POINT('',#1540);
#486=VERTEX_POINT('',#1542);
#487=VERTEX_POINT('',#1546);
#488=VERTEX_POINT('',#1548);
#489=VERTEX_POINT('',#1552);
#490=VERTEX_POINT('',#1554);
#491=VERTEX_POINT('',#1562);
#492=VERTEX_POINT('',#1563);
#493=VERTEX_POINT('',#1565);
#494=VERTEX_POINT('',#1567);
#495=VERTEX_POINT('',#1571);
#496=VERTEX_POINT('',#1573);
#497=VERTEX_POINT('',#1577);
#498=VERTEX_POINT('',#1579);
#499=VERTEX_POINT('',#1587);
#500=VERTEX_POINT('',#1588);
#501=VERTEX_POINT('',#1590);
#502=VERTEX_POINT('',#1592);
#503=VERTEX_POINT('',#1596);
#504=VERTEX_POINT('',#1598);
#505=VERTEX_POINT('',#1602);
#506=VERTEX_POINT('',#1604);
#507=VERTEX_POINT('',#1608);
#508=VERTEX_POINT('',#1610);
#509=VERTEX_POINT('',#1614);
#510=VERTEX_POINT('',#1616);
#511=VERTEX_POINT('',#1620);
#512=VERTEX_POINT('',#1622);
#513=EDGE_CURVE('',#443,#444,#233,.T.);
#514=EDGE_CURVE('',#443,#445,#234,.T.);
#515=EDGE_CURVE('',#446,#445,#235,.T.);
#516=EDGE_CURVE('',#444,#446,#236,.T.);
#517=EDGE_CURVE('',#444,#447,#237,.T.);
#518=EDGE_CURVE('',#448,#446,#238,.T.);
#519=EDGE_CURVE('',#447,#448,#239,.T.);
#520=EDGE_CURVE('',#447,#449,#240,.T.);
#521=EDGE_CURVE('',#450,#448,#241,.T.);
#522=EDGE_CURVE('',#449,#450,#242,.T.);
#523=EDGE_CURVE('',#449,#443,#243,.T.);
#524=EDGE_CURVE('',#445,#450,#244,.T.);
#525=EDGE_CURVE('',#451,#452,#245,.T.);
#526=EDGE_CURVE('',#451,#453,#246,.T.);
#527=EDGE_CURVE('',#454,#453,#247,.T.);
#528=EDGE_CURVE('',#452,#454,#248,.T.);
#529=EDGE_CURVE('',#452,#455,#249,.T.);
#530=EDGE_CURVE('',#456,#454,#250,.T.);
#531=EDGE_CURVE('',#455,#456,#251,.T.);
#532=EDGE_CURVE('',#455,#457,#252,.T.);
#533=EDGE_CURVE('',#458,#456,#253,.T.);
#534=EDGE_CURVE('',#457,#458,#254,.T.);
#535=EDGE_CURVE('',#457,#451,#255,.T.);
#536=EDGE_CURVE('',#453,#458,#256,.T.);
#537=EDGE_CURVE('',#459,#460,#257,.T.);
#538=EDGE_CURVE('',#459,#461,#258,.T.);
#539=EDGE_CURVE('',#462,#461,#259,.T.);
#540=EDGE_CURVE('',#460,#462,#260,.T.);
#541=EDGE_CURVE('',#460,#463,#261,.T.);
#542=EDGE_CURVE('',#464,#462,#262,.T.);
#543=EDGE_CURVE('',#463,#464,#263,.T.);
#544=EDGE_CURVE('',#463,#465,#264,.T.);
#545=EDGE_CURVE('',#466,#464,#265,.T.);
#546=EDGE_CURVE('',#465,#466,#266,.T.);
#547=EDGE_CURVE('',#465,#459,#267,.T.);
#548=EDGE_CURVE('',#461,#466,#268,.T.);
#549=EDGE_CURVE('',#467,#468,#269,.T.);
#550=EDGE_CURVE('',#467,#469,#270,.T.);
#551=EDGE_CURVE('',#470,#469,#271,.T.);
#552=EDGE_CURVE('',#468,#470,#272,.T.);
#553=EDGE_CURVE('',#468,#471,#273,.T.);
#554=EDGE_CURVE('',#472,#470,#274,.T.);
#555=EDGE_CURVE('',#471,#472,#275,.T.);
#556=EDGE_CURVE('',#471,#473,#276,.T.);
#557=EDGE_CURVE('',#474,#472,#277,.T.);
#558=EDGE_CURVE('',#473,#474,#278,.T.);
#559=EDGE_CURVE('',#467,#473,#279,.T.);
#560=EDGE_CURVE('',#469,#474,#280,.T.);
#561=EDGE_CURVE('',#475,#476,#281,.T.);
#562=EDGE_CURVE('',#475,#477,#282,.T.);
#563=EDGE_CURVE('',#478,#477,#283,.T.);
#564=EDGE_CURVE('',#476,#478,#284,.T.);
#565=EDGE_CURVE('',#476,#479,#285,.T.);
#566=EDGE_CURVE('',#480,#478,#286,.T.);
#567=EDGE_CURVE('',#479,#480,#287,.T.);
#568=EDGE_CURVE('',#479,#481,#288,.T.);
#569=EDGE_CURVE('',#482,#480,#289,.T.);
#570=EDGE_CURVE('',#481,#482,#290,.T.);
#571=EDGE_CURVE('',#481,#475,#291,.T.);
#572=EDGE_CURVE('',#477,#482,#292,.T.);
#573=EDGE_CURVE('',#483,#484,#293,.T.);
#574=EDGE_CURVE('',#483,#485,#294,.T.);
#575=EDGE_CURVE('',#486,#485,#295,.T.);
#576=EDGE_CURVE('',#484,#486,#296,.T.);
#577=EDGE_CURVE('',#484,#487,#297,.T.);
#578=EDGE_CURVE('',#488,#486,#298,.T.);
#579=EDGE_CURVE('',#487,#488,#299,.T.);
#580=EDGE_CURVE('',#487,#489,#300,.T.);
#581=EDGE_CURVE('',#490,#488,#301,.T.);
#582=EDGE_CURVE('',#489,#490,#302,.T.);
#583=EDGE_CURVE('',#489,#483,#303,.T.);
#584=EDGE_CURVE('',#485,#490,#304,.T.);
#585=EDGE_CURVE('',#491,#492,#305,.T.);
#586=EDGE_CURVE('',#491,#493,#306,.T.);
#587=EDGE_CURVE('',#494,#493,#307,.T.);
#588=EDGE_CURVE('',#492,#494,#308,.T.);
#589=EDGE_CURVE('',#492,#495,#309,.T.);
#590=EDGE_CURVE('',#496,#494,#310,.T.);
#591=EDGE_CURVE('',#495,#496,#311,.T.);
#592=EDGE_CURVE('',#497,#495,#312,.T.);
#593=EDGE_CURVE('',#498,#496,#313,.T.);
#594=EDGE_CURVE('',#497,#498,#314,.T.);
#595=EDGE_CURVE('',#491,#497,#315,.T.);
#596=EDGE_CURVE('',#493,#498,#316,.T.);
#597=EDGE_CURVE('',#499,#500,#317,.T.);
#598=EDGE_CURVE('',#499,#501,#318,.T.);
#599=EDGE_CURVE('',#502,#501,#319,.T.);
#600=EDGE_CURVE('',#500,#502,#320,.T.);
#601=EDGE_CURVE('',#500,#503,#321,.T.);
#602=EDGE_CURVE('',#504,#502,#322,.T.);
#603=EDGE_CURVE('',#503,#504,#323,.T.);
#604=EDGE_CURVE('',#503,#505,#324,.T.);
#605=EDGE_CURVE('',#506,#504,#325,.T.);
#606=EDGE_CURVE('',#505,#506,#326,.T.);
#607=EDGE_CURVE('',#505,#507,#327,.T.);
#608=EDGE_CURVE('',#508,#506,#328,.T.);
#609=EDGE_CURVE('',#507,#508,#329,.T.);
#610=EDGE_CURVE('',#509,#507,#330,.T.);
#611=EDGE_CURVE('',#510,#508,#331,.T.);
#612=EDGE_CURVE('',#509,#510,#332,.T.);
#613=EDGE_CURVE('',#511,#509,#333,.T.);
#614=EDGE_CURVE('',#512,#510,#334,.T.);
#615=EDGE_CURVE('',#511,#512,#335,.T.);
#616=EDGE_CURVE('',#511,#499,#336,.T.);
#617=EDGE_CURVE('',#501,#512,#337,.T.);
#618=ORIENTED_EDGE('',*,*,#513,.F.);
#619=ORIENTED_EDGE('',*,*,#514,.T.);
#620=ORIENTED_EDGE('',*,*,#515,.F.);
#621=ORIENTED_EDGE('',*,*,#516,.F.);
#622=ORIENTED_EDGE('',*,*,#517,.F.);
#623=ORIENTED_EDGE('',*,*,#516,.T.);
#624=ORIENTED_EDGE('',*,*,#518,.F.);
#625=ORIENTED_EDGE('',*,*,#519,.F.);
#626=ORIENTED_EDGE('',*,*,#520,.F.);
#627=ORIENTED_EDGE('',*,*,#519,.T.);
#628=ORIENTED_EDGE('',*,*,#521,.F.);
#629=ORIENTED_EDGE('',*,*,#522,.F.);
#630=ORIENTED_EDGE('',*,*,#523,.F.);
#631=ORIENTED_EDGE('',*,*,#522,.T.);
#632=ORIENTED_EDGE('',*,*,#524,.F.);
#633=ORIENTED_EDGE('',*,*,#514,.F.);
#634=ORIENTED_EDGE('',*,*,#523,.T.);
#635=ORIENTED_EDGE('',*,*,#513,.T.);
#636=ORIENTED_EDGE('',*,*,#517,.T.);
#637=ORIENTED_EDGE('',*,*,#520,.T.);
#638=ORIENTED_EDGE('',*,*,#525,.F.);
#639=ORIENTED_EDGE('',*,*,#526,.T.);
#640=ORIENTED_EDGE('',*,*,#527,.F.);
#641=ORIENTED_EDGE('',*,*,#528,.F.);
#642=ORIENTED_EDGE('',*,*,#529,.F.);
#643=ORIENTED_EDGE('',*,*,#528,.T.);
#644=ORIENTED_EDGE('',*,*,#530,.F.);
#645=ORIENTED_EDGE('',*,*,#531,.F.);
#646=ORIENTED_EDGE('',*,*,#532,.F.);
#647=ORIENTED_EDGE('',*,*,#531,.T.);
#648=ORIENTED_EDGE('',*,*,#533,.F.);
#649=ORIENTED_EDGE('',*,*,#534,.F.);
#650=ORIENTED_EDGE('',*,*,#535,.F.);
#651=ORIENTED_EDGE('',*,*,#534,.T.);
#652=ORIENTED_EDGE('',*,*,#536,.F.);
#653=ORIENTED_EDGE('',*,*,#526,.F.);
#654=ORIENTED_EDGE('',*,*,#535,.T.);
#655=ORIENTED_EDGE('',*,*,#525,.T.);
#656=ORIENTED_EDGE('',*,*,#529,.T.);
#657=ORIENTED_EDGE('',*,*,#532,.T.);
#658=ORIENTED_EDGE('',*,*,#537,.F.);
#659=ORIENTED_EDGE('',*,*,#538,.T.);
#660=ORIENTED_EDGE('',*,*,#539,.F.);
#661=ORIENTED_EDGE('',*,*,#540,.F.);
#662=ORIENTED_EDGE('',*,*,#541,.F.);
#663=ORIENTED_EDGE('',*,*,#540,.T.);
#664=ORIENTED_EDGE('',*,*,#542,.F.);
#665=ORIENTED_EDGE('',*,*,#543,.F.);
#666=ORIENTED_EDGE('',*,*,#544,.F.);
#667=ORIENTED_EDGE('',*,*,#543,.T.);
#668=ORIENTED_EDGE('',*,*,#545,.F.);
#669=ORIENTED_EDGE('',*,*,#546,.F.);
#670=ORIENTED_EDGE('',*,*,#547,.F.);
#671=ORIENTED_EDGE('',*,*,#546,.T.);
#672=ORIENTED_EDGE('',*,*,#548,.F.);
#673=ORIENTED_EDGE('',*,*,#538,.F.);
#674=ORIENTED_EDGE('',*,*,#547,.T.);
#675=ORIENTED_EDGE('',*,*,#537,.T.);
#676=ORIENTED_EDGE('',*,*,#541,.T.);
#677=ORIENTED_EDGE('',*,*,#544,.T.);
#678=ORIENTED_EDGE('',*,*,#549,.F.);
#679=ORIENTED_EDGE('',*,*,#550,.T.);
#680=ORIENTED_EDGE('',*,*,#551,.F.);
#681=ORIENTED_EDGE('',*,*,#552,.F.);
#682=ORIENTED_EDGE('',*,*,#553,.F.);
#683=ORIENTED_EDGE('',*,*,#552,.T.);
#684=ORIENTED_EDGE('',*,*,#554,.F.);
#685=ORIENTED_EDGE('',*,*,#555,.F.);
#686=ORIENTED_EDGE('',*,*,#556,.F.);
#687=ORIENTED_EDGE('',*,*,#555,.T.);
#688=ORIENTED_EDGE('',*,*,#557,.F.);
#689=ORIENTED_EDGE('',*,*,#558,.F.);
#690=ORIENTED_EDGE('',*,*,#559,.T.);
#691=ORIENTED_EDGE('',*,*,#558,.T.);
#692=ORIENTED_EDGE('',*,*,#560,.F.);
#693=ORIENTED_EDGE('',*,*,#550,.F.);
#694=ORIENTED_EDGE('',*,*,#559,.F.);
#695=ORIENTED_EDGE('',*,*,#549,.T.);
#696=ORIENTED_EDGE('',*,*,#553,.T.);
#697=ORIENTED_EDGE('',*,*,#556,.T.);
#698=ORIENTED_EDGE('',*,*,#561,.F.);
#699=ORIENTED_EDGE('',*,*,#562,.T.);
#700=ORIENTED_EDGE('',*,*,#563,.F.);
#701=ORIENTED_EDGE('',*,*,#564,.F.);
#702=ORIENTED_EDGE('',*,*,#565,.F.);
#703=ORIENTED_EDGE('',*,*,#564,.T.);
#704=ORIENTED_EDGE('',*,*,#566,.F.);
#705=ORIENTED_EDGE('',*,*,#567,.F.);
#706=ORIENTED_EDGE('',*,*,#568,.F.);
#707=ORIENTED_EDGE('',*,*,#567,.T.);
#708=ORIENTED_EDGE('',*,*,#569,.F.);
#709=ORIENTED_EDGE('',*,*,#570,.F.);
#710=ORIENTED_EDGE('',*,*,#571,.F.);
#711=ORIENTED_EDGE('',*,*,#570,.T.);
#712=ORIENTED_EDGE('',*,*,#572,.F.);
#713=ORIENTED_EDGE('',*,*,#562,.F.);
#714=ORIENTED_EDGE('',*,*,#571,.T.);
#715=ORIENTED_EDGE('',*,*,#561,.T.);
#716=ORIENTED_EDGE('',*,*,#565,.T.);
#717=ORIENTED_EDGE('',*,*,#568,.T.);
#718=ORIENTED_EDGE('',*,*,#573,.F.);
#719=ORIENTED_EDGE('',*,*,#574,.T.);
#720=ORIENTED_EDGE('',*,*,#575,.F.);
#721=ORIENTED_EDGE('',*,*,#576,.F.);
#722=ORIENTED_EDGE('',*,*,#577,.F.);
#723=ORIENTED_EDGE('',*,*,#576,.T.);
#724=ORIENTED_EDGE('',*,*,#578,.F.);
#725=ORIENTED_EDGE('',*,*,#579,.F.);
#726=ORIENTED_EDGE('',*,*,#580,.F.);
#727=ORIENTED_EDGE('',*,*,#579,.T.);
#728=ORIENTED_EDGE('',*,*,#581,.F.);
#729=ORIENTED_EDGE('',*,*,#582,.F.);
#730=ORIENTED_EDGE('',*,*,#583,.F.);
#731=ORIENTED_EDGE('',*,*,#582,.T.);
#732=ORIENTED_EDGE('',*,*,#584,.F.);
#733=ORIENTED_EDGE('',*,*,#574,.F.);
#734=ORIENTED_EDGE('',*,*,#583,.T.);
#735=ORIENTED_EDGE('',*,*,#573,.T.);
#736=ORIENTED_EDGE('',*,*,#577,.T.);
#737=ORIENTED_EDGE('',*,*,#580,.T.);
#738=ORIENTED_EDGE('',*,*,#585,.F.);
#739=ORIENTED_EDGE('',*,*,#586,.T.);
#740=ORIENTED_EDGE('',*,*,#587,.F.);
#741=ORIENTED_EDGE('',*,*,#588,.F.);
#742=ORIENTED_EDGE('',*,*,#589,.F.);
#743=ORIENTED_EDGE('',*,*,#588,.T.);
#744=ORIENTED_EDGE('',*,*,#590,.F.);
#745=ORIENTED_EDGE('',*,*,#591,.F.);
#746=ORIENTED_EDGE('',*,*,#592,.T.);
#747=ORIENTED_EDGE('',*,*,#591,.T.);
#748=ORIENTED_EDGE('',*,*,#593,.F.);
#749=ORIENTED_EDGE('',*,*,#594,.F.);
#750=ORIENTED_EDGE('',*,*,#595,.T.);
#751=ORIENTED_EDGE('',*,*,#594,.T.);
#752=ORIENTED_EDGE('',*,*,#596,.F.);
#753=ORIENTED_EDGE('',*,*,#586,.F.);
#754=ORIENTED_EDGE('',*,*,#595,.F.);
#755=ORIENTED_EDGE('',*,*,#585,.T.);
#756=ORIENTED_EDGE('',*,*,#589,.T.);
#757=ORIENTED_EDGE('',*,*,#592,.F.);
#758=ORIENTED_EDGE('',*,*,#597,.F.);
#759=ORIENTED_EDGE('',*,*,#598,.T.);
#760=ORIENTED_EDGE('',*,*,#599,.F.);
#761=ORIENTED_EDGE('',*,*,#600,.F.);
#762=ORIENTED_EDGE('',*,*,#601,.F.);
#763=ORIENTED_EDGE('',*,*,#600,.T.);
#764=ORIENTED_EDGE('',*,*,#602,.F.);
#765=ORIENTED_EDGE('',*,*,#603,.F.);
#766=ORIENTED_EDGE('',*,*,#604,.F.);
#767=ORIENTED_EDGE('',*,*,#603,.T.);
#768=ORIENTED_EDGE('',*,*,#605,.F.);
#769=ORIENTED_EDGE('',*,*,#606,.F.);
#770=ORIENTED_EDGE('',*,*,#607,.F.);
#771=ORIENTED_EDGE('',*,*,#606,.T.);
#772=ORIENTED_EDGE('',*,*,#608,.F.);
#773=ORIENTED_EDGE('',*,*,#609,.F.);
#774=ORIENTED_EDGE('',*,*,#610,.T.);
#775=ORIENTED_EDGE('',*,*,#609,.T.);
#776=ORIENTED_EDGE('',*,*,#611,.F.);
#777=ORIENTED_EDGE('',*,*,#612,.F.);
#778=ORIENTED_EDGE('',*,*,#613,.T.);
#779=ORIENTED_EDGE('',*,*,#612,.T.);
#780=ORIENTED_EDGE('',*,*,#614,.F.);
#781=ORIENTED_EDGE('',*,*,#615,.F.);
#782=ORIENTED_EDGE('',*,*,#616,.F.);
#783=ORIENTED_EDGE('',*,*,#615,.T.);
#784=ORIENTED_EDGE('',*,*,#617,.F.);
#785=ORIENTED_EDGE('',*,*,#598,.F.);
#786=ORIENTED_EDGE('',*,*,#617,.T.);
#787=ORIENTED_EDGE('',*,*,#614,.T.);
#788=ORIENTED_EDGE('',*,*,#611,.T.);
#789=ORIENTED_EDGE('',*,*,#608,.T.);
#790=ORIENTED_EDGE('',*,*,#605,.T.);
#791=ORIENTED_EDGE('',*,*,#602,.T.);
#792=ORIENTED_EDGE('',*,*,#599,.T.);
#793=ORIENTED_EDGE('',*,*,#616,.T.);
#794=ORIENTED_EDGE('',*,*,#597,.T.);
#795=ORIENTED_EDGE('',*,*,#601,.T.);
#796=ORIENTED_EDGE('',*,*,#604,.T.);
#797=ORIENTED_EDGE('',*,*,#607,.T.);
#798=ORIENTED_EDGE('',*,*,#610,.F.);
#799=ORIENTED_EDGE('',*,*,#613,.F.);
#800=ORIENTED_EDGE('',*,*,#515,.T.);
#801=ORIENTED_EDGE('',*,*,#524,.T.);
#802=ORIENTED_EDGE('',*,*,#521,.T.);
#803=ORIENTED_EDGE('',*,*,#518,.T.);
#804=ORIENTED_EDGE('',*,*,#527,.T.);
#805=ORIENTED_EDGE('',*,*,#536,.T.);
#806=ORIENTED_EDGE('',*,*,#533,.T.);
#807=ORIENTED_EDGE('',*,*,#530,.T.);
#808=ORIENTED_EDGE('',*,*,#539,.T.);
#809=ORIENTED_EDGE('',*,*,#548,.T.);
#810=ORIENTED_EDGE('',*,*,#545,.T.);
#811=ORIENTED_EDGE('',*,*,#542,.T.);
#812=ORIENTED_EDGE('',*,*,#551,.T.);
#813=ORIENTED_EDGE('',*,*,#560,.T.);
#814=ORIENTED_EDGE('',*,*,#557,.T.);
#815=ORIENTED_EDGE('',*,*,#554,.T.);
#816=ORIENTED_EDGE('',*,*,#563,.T.);
#817=ORIENTED_EDGE('',*,*,#572,.T.);
#818=ORIENTED_EDGE('',*,*,#569,.T.);
#819=ORIENTED_EDGE('',*,*,#566,.T.);
#820=ORIENTED_EDGE('',*,*,#575,.T.);
#821=ORIENTED_EDGE('',*,*,#584,.T.);
#822=ORIENTED_EDGE('',*,*,#581,.T.);
#823=ORIENTED_EDGE('',*,*,#578,.T.);
#824=ORIENTED_EDGE('',*,*,#587,.T.);
#825=ORIENTED_EDGE('',*,*,#596,.T.);
#826=ORIENTED_EDGE('',*,*,#593,.T.);
#827=ORIENTED_EDGE('',*,*,#590,.T.);
#828=PLANE('',#1051);
#829=PLANE('',#1052);
#830=PLANE('',#1053);
#831=PLANE('',#1054);
#832=PLANE('',#1055);
#833=PLANE('',#1056);
#834=PLANE('',#1057);
#835=PLANE('',#1058);
#836=PLANE('',#1059);
#837=PLANE('',#1060);
#838=PLANE('',#1061);
#839=PLANE('',#1062);
#840=PLANE('',#1063);
#841=PLANE('',#1064);
#842=PLANE('',#1065);
#843=PLANE('',#1066);
#844=PLANE('',#1067);
#845=PLANE('',#1068);
#846=PLANE('',#1069);
#847=PLANE('',#1070);
#848=PLANE('',#1071);
#849=PLANE('',#1072);
#850=PLANE('',#1073);
#851=PLANE('',#1074);
#852=PLANE('',#1075);
#853=PLANE('',#1076);
#854=PLANE('',#1077);
#855=PLANE('',#1078);
#856=PLANE('',#1079);
#857=PLANE('',#1080);
#858=PLANE('',#1081);
#859=PLANE('',#1082);
#860=PLANE('',#1083);
#861=PLANE('',#1084);
#862=PLANE('',#1085);
#863=PLANE('',#1086);
#864=PLANE('',#1087);
#865=PLANE('',#1088);
#866=PLANE('',#1089);
#867=PLANE('',#1090);
#868=PLANE('',#1091);
#869=PLANE('',#1092);
#870=PLANE('',#1093);
#871=PLANE('',#1094);
#872=ADVANCED_FACE('',(#138),#828,.T.);
#873=ADVANCED_FACE('',(#139),#829,.T.);
#874=ADVANCED_FACE('',(#140),#830,.T.);
#875=ADVANCED_FACE('',(#141),#831,.T.);
#876=ADVANCED_FACE('',(#142),#832,.F.);
#877=ADVANCED_FACE('',(#143),#833,.T.);
#878=ADVANCED_FACE('',(#144),#834,.T.);
#879=ADVANCED_FACE('',(#145),#835,.T.);
#880=ADVANCED_FACE('',(#146),#836,.T.);
#881=ADVANCED_FACE('',(#147),#837,.F.);
#882=ADVANCED_FACE('',(#148),#838,.T.);
#883=ADVANCED_FACE('',(#149),#839,.T.);
#884=ADVANCED_FACE('',(#150),#840,.T.);
#885=ADVANCED_FACE('',(#151),#841,.T.);
#886=ADVANCED_FACE('',(#152),#842,.F.);
#887=ADVANCED_FACE('',(#153),#843,.T.);
#888=ADVANCED_FACE('',(#154),#844,.T.);
#889=ADVANCED_FACE('',(#155),#845,.T.);
#890=ADVANCED_FACE('',(#156),#846,.T.);
#891=ADVANCED_FACE('',(#157),#847,.F.);
#892=ADVANCED_FACE('',(#158),#848,.T.);
#893=ADVANCED_FACE('',(#159),#849,.T.);
#894=ADVANCED_FACE('',(#160),#850,.T.);
#895=ADVANCED_FACE('',(#161),#851,.T.);
#896=ADVANCED_FACE('',(#162),#852,.F.);
#897=ADVANCED_FACE('',(#163),#853,.T.);
#898=ADVANCED_FACE('',(#164),#854,.T.);
#899=ADVANCED_FACE('',(#165),#855,.T.);
#900=ADVANCED_FACE('',(#166),#856,.T.);
#901=ADVANCED_FACE('',(#167),#857,.F.);
#902=ADVANCED_FACE('',(#168),#858,.T.);
#903=ADVANCED_FACE('',(#169),#859,.T.);
#904=ADVANCED_FACE('',(#170),#860,.T.);
#905=ADVANCED_FACE('',(#171),#861,.T.);
#906=ADVANCED_FACE('',(#172),#862,.F.);
#907=ADVANCED_FACE('',(#173),#863,.T.);
#908=ADVANCED_FACE('',(#174),#864,.T.);
#909=ADVANCED_FACE('',(#175),#865,.T.);
#910=ADVANCED_FACE('',(#176),#866,.T.);
#911=ADVANCED_FACE('',(#177),#867,.T.);
#912=ADVANCED_FACE('',(#178),#868,.T.);
#913=ADVANCED_FACE('',(#179),#869,.T.);
#914=ADVANCED_FACE('',(#180),#870,.T.);
#915=ADVANCED_FACE('',(#181,#131,#132,#133,#134,#135,#136,#137),#871,.F.);
#916=CLOSED_SHELL('',(#872,#873,#874,#875,#876,#877,#878,#879,#880,#881,
#882,#883,#884,#885,#886,#887,#888,#889,#890,#891,#892,#893,#894,#895,#896,
#897,#898,#899,#900,#901,#902,#903,#904,#905,#906,#907,#908,#909,#910,#911,
#912,#913,#914,#915));
#917=DERIVED_UNIT_ELEMENT(#939,1.);
#918=DERIVED_UNIT_ELEMENT(#1686,-3.);
#919=DERIVED_UNIT_ELEMENT(#939,1.);
#920=DERIVED_UNIT_ELEMENT(#1686,-3.);
#921=DERIVED_UNIT_ELEMENT(#939,1.);
#922=DERIVED_UNIT_ELEMENT(#1686,-3.);
#923=DERIVED_UNIT_ELEMENT(#939,1.);
#924=DERIVED_UNIT_ELEMENT(#1686,-3.);
#925=DERIVED_UNIT_ELEMENT(#939,1.);
#926=DERIVED_UNIT_ELEMENT(#1686,-3.);
#927=DERIVED_UNIT_ELEMENT(#939,1.);
#928=DERIVED_UNIT_ELEMENT(#1686,-3.);
#929=DERIVED_UNIT_ELEMENT(#939,1.);
#930=DERIVED_UNIT_ELEMENT(#1686,-3.);
#931=DERIVED_UNIT_ELEMENT(#939,1.);
#932=DERIVED_UNIT_ELEMENT(#1686,-3.);
#933=DERIVED_UNIT_ELEMENT(#939,1.);
#934=DERIVED_UNIT_ELEMENT(#1686,-3.);
#935=DERIVED_UNIT_ELEMENT(#939,1.);
#936=DERIVED_UNIT_ELEMENT(#1686,-3.);
#937=DERIVED_UNIT_ELEMENT(#939,1.);
#938=DERIVED_UNIT_ELEMENT(#1686,-3.);
#939=(
MASS_UNIT()
NAMED_UNIT(*)
SI_UNIT(.KILO.,.GRAM.)
);
#940=DERIVED_UNIT((#917,#918));
#941=DERIVED_UNIT((#919,#920));
#942=DERIVED_UNIT((#921,#922));
#943=DERIVED_UNIT((#923,#924));
#944=DERIVED_UNIT((#925,#926));
#945=DERIVED_UNIT((#927,#928));
#946=DERIVED_UNIT((#929,#930));
#947=DERIVED_UNIT((#931,#932));
#948=DERIVED_UNIT((#933,#934));
#949=DERIVED_UNIT((#935,#936));
#950=DERIVED_UNIT((#937,#938));
#951=MEASURE_REPRESENTATION_ITEM('density measure',
POSITIVE_RATIO_MEASURE(7850.),#940);
#952=MEASURE_REPRESENTATION_ITEM('density measure',
POSITIVE_RATIO_MEASURE(7850.),#941);
#953=MEASURE_REPRESENTATION_ITEM('density measure',
POSITIVE_RATIO_MEASURE(7.85),#942);
#954=MEASURE_REPRESENTATION_ITEM('density measure',
POSITIVE_RATIO_MEASURE(7850.),#943);
#955=MEASURE_REPRESENTATION_ITEM('density measure',
POSITIVE_RATIO_MEASURE(7850.),#944);
#956=MEASURE_REPRESENTATION_ITEM('density measure',
POSITIVE_RATIO_MEASURE(7850.),#945);
#957=MEASURE_REPRESENTATION_ITEM('density measure',
POSITIVE_RATIO_MEASURE(7850.),#946);
#958=MEASURE_REPRESENTATION_ITEM('density measure',
POSITIVE_RATIO_MEASURE(7850.),#947);
#959=MEASURE_REPRESENTATION_ITEM('density measure',
POSITIVE_RATIO_MEASURE(7850.),#948);
#960=MEASURE_REPRESENTATION_ITEM('density measure',
POSITIVE_RATIO_MEASURE(7850.),#949);
#961=MEASURE_REPRESENTATION_ITEM('density measure',
POSITIVE_RATIO_MEASURE(7850.),#950);
#962=PROPERTY_DEFINITION_REPRESENTATION(#1017,#984);
#963=PROPERTY_DEFINITION_REPRESENTATION(#1018,#985);
#964=PROPERTY_DEFINITION_REPRESENTATION(#1019,#986);
#965=PROPERTY_DEFINITION_REPRESENTATION(#1020,#987);
#966=PROPERTY_DEFINITION_REPRESENTATION(#1021,#988);
#967=PROPERTY_DEFINITION_REPRESENTATION(#1022,#989);
#968=PROPERTY_DEFINITION_REPRESENTATION(#1023,#990);
#969=PROPERTY_DEFINITION_REPRESENTATION(#1024,#991);
#970=PROPERTY_DEFINITION_REPRESENTATION(#1025,#992);
#971=PROPERTY_DEFINITION_REPRESENTATION(#1026,#993);
#972=PROPERTY_DEFINITION_REPRESENTATION(#1027,#994);
#973=PROPERTY_DEFINITION_REPRESENTATION(#1028,#995);
#974=PROPERTY_DEFINITION_REPRESENTATION(#1029,#996);
#975=PROPERTY_DEFINITION_REPRESENTATION(#1030,#997);
#976=PROPERTY_DEFINITION_REPRESENTATION(#1031,#998);
#977=PROPERTY_DEFINITION_REPRESENTATION(#1032,#999);
#978=PROPERTY_DEFINITION_REPRESENTATION(#1033,#1000);
#979=PROPERTY_DEFINITION_REPRESENTATION(#1034,#1001);
#980=PROPERTY_DEFINITION_REPRESENTATION(#1035,#1002);
#981=PROPERTY_DEFINITION_REPRESENTATION(#1036,#1003);
#982=PROPERTY_DEFINITION_REPRESENTATION(#1037,#1004);
#983=PROPERTY_DEFINITION_REPRESENTATION(#1038,#1005);
#984=REPRESENTATION('material name',(#1006),#1673);
#985=REPRESENTATION('density',(#951),#1673);
#986=REPRESENTATION('material name',(#1007),#1674);
#987=REPRESENTATION('density',(#952),#1674);
#988=REPRESENTATION('material name',(#1008),#1675);
#989=REPRESENTATION('density',(#953),#1675);
#990=REPRESENTATION('material name',(#1009),#1676);
#991=REPRESENTATION('density',(#954),#1676);
#992=REPRESENTATION('material name',(#1010),#1677);
#993=REPRESENTATION('density',(#955),#1677);
#994=REPRESENTATION('material name',(#1011),#1678);
#995=REPRESENTATION('density',(#956),#1678);
#996=REPRESENTATION('material name',(#1012),#1679);
#997=REPRESENTATION('density',(#957),#1679);
#998=REPRESENTATION('material name',(#1013),#1680);
#999=REPRESENTATION('density',(#958),#1680);
#1000=REPRESENTATION('material name',(#1014),#1681);
#1001=REPRESENTATION('density',(#959),#1681);
#1002=REPRESENTATION('material name',(#1015),#1682);
#1003=REPRESENTATION('density',(#960),#1682);
#1004=REPRESENTATION('material name',(#1016),#1683);
#1005=REPRESENTATION('density',(#961),#1683);
#1006=DESCRIPTIVE_REPRESENTATION_ITEM('Steel','Steel');
#1007=DESCRIPTIVE_REPRESENTATION_ITEM('Steel','Steel');
#1008=DESCRIPTIVE_REPRESENTATION_ITEM('Steel','Steel');
#1009=DESCRIPTIVE_REPRESENTATION_ITEM('Steel','Steel');
#1010=DESCRIPTIVE_REPRESENTATION_ITEM('Steel','Steel');
#1011=DESCRIPTIVE_REPRESENTATION_ITEM('Steel','Steel');
#1012=DESCRIPTIVE_REPRESENTATION_ITEM('Steel','Steel');
#1013=DESCRIPTIVE_REPRESENTATION_ITEM('Steel','Steel');
#1014=DESCRIPTIVE_REPRESENTATION_ITEM('Steel','Steel');
#1015=DESCRIPTIVE_REPRESENTATION_ITEM('Steel','Steel');
#1016=DESCRIPTIVE_REPRESENTATION_ITEM('Steel','Steel');
#1017=PROPERTY_DEFINITION('material property','material name',#1756);
#1018=PROPERTY_DEFINITION('material property','density of part',#1756);
#1019=PROPERTY_DEFINITION('material property','material name',#1757);
#1020=PROPERTY_DEFINITION('material property','density of part',#1757);
#1021=PROPERTY_DEFINITION('material property','material name',#1758);
#1022=PROPERTY_DEFINITION('material property','density of part',#1758);
#1023=PROPERTY_DEFINITION('material property','material name',#1759);
#1024=PROPERTY_DEFINITION('material property','density of part',#1759);
#1025=PROPERTY_DEFINITION('material property','material name',#1760);
#1026=PROPERTY_DEFINITION('material property','density of part',#1760);
#1027=PROPERTY_DEFINITION('material property','material name',#1761);
#1028=PROPERTY_DEFINITION('material property','density of part',#1761);
#1029=PROPERTY_DEFINITION('material property','material name',#1762);
#1030=PROPERTY_DEFINITION('material property','density of part',#1762);
#1031=PROPERTY_DEFINITION('material property','material name',#1763);
#1032=PROPERTY_DEFINITION('material property','density of part',#1763);
#1033=PROPERTY_DEFINITION('material property','material name',#1764);
#1034=PROPERTY_DEFINITION('material property','density of part',#1764);
#1035=PROPERTY_DEFINITION('material property','material name',#1765);
#1036=PROPERTY_DEFINITION('material property','density of part',#1765);
#1037=PROPERTY_DEFINITION('material property','material name',#1766);
#1038=PROPERTY_DEFINITION('material property','density of part',#1766);
#1039=AXIS2_PLACEMENT_3D('',#1399,#1124,#1125);
#1040=AXIS2_PLACEMENT_3D('',#1400,#1126,#1127);
#1041=AXIS2_PLACEMENT_3D('',#1401,#1128,#1129);
#1042=AXIS2_PLACEMENT_3D('',#1402,#1130,#1131);
#1043=AXIS2_PLACEMENT_3D('',#1403,#1132,#1133);
#1044=AXIS2_PLACEMENT_3D('',#1404,#1134,#1135);
#1045=AXIS2_PLACEMENT_3D('',#1405,#1136,#1137);
#1046=AXIS2_PLACEMENT_3D('',#1406,#1138,#1139);
#1047=AXIS2_PLACEMENT_3D('',#1407,#1140,#1141);
#1048=AXIS2_PLACEMENT_3D('',#1408,#1142,#1143);
#1049=AXIS2_PLACEMENT_3D('',#1409,#1144,#1145);
#1050=AXIS2_PLACEMENT_3D('',#1410,#1146,#1147);
#1051=AXIS2_PLACEMENT_3D('',#1411,#1148,#1149);
#1052=AXIS2_PLACEMENT_3D('',#1420,#1154,#1155);
#1053=AXIS2_PLACEMENT_3D('',#1426,#1159,#1160);
#1054=AXIS2_PLACEMENT_3D('',#1432,#1164,#1165);
#1055=AXIS2_PLACEMENT_3D('',#1435,#1168,#1169);
#1056=AXIS2_PLACEMENT_3D('',#1436,#1170,#1171);
#1057=AXIS2_PLACEMENT_3D('',#1445,#1176,#1177);
#1058=AXIS2_PLACEMENT_3D('',#1451,#1181,#1182);
#1059=AXIS2_PLACEMENT_3D('',#1457,#1186,#1187);
#1060=AXIS2_PLACEMENT_3D('',#1460,#1190,#1191);
#1061=AXIS2_PLACEMENT_3D('',#1461,#1192,#1193);
#1062=AXIS2_PLACEMENT_3D('',#1470,#1198,#1199);
#1063=AXIS2_PLACEMENT_3D('',#1476,#1203,#1204);
#1064=AXIS2_PLACEMENT_3D('',#1482,#1208,#1209);
#1065=AXIS2_PLACEMENT_3D('',#1485,#1212,#1213);
#1066=AXIS2_PLACEMENT_3D('',#1486,#1214,#1215);
#1067=AXIS2_PLACEMENT_3D('',#1495,#1220,#1221);
#1068=AXIS2_PLACEMENT_3D('',#1501,#1225,#1226);
#1069=AXIS2_PLACEMENT_3D('',#1507,#1230,#1231);
#1070=AXIS2_PLACEMENT_3D('',#1510,#1234,#1235);
#1071=AXIS2_PLACEMENT_3D('',#1511,#1236,#1237);
#1072=AXIS2_PLACEMENT_3D('',#1520,#1242,#1243);
#1073=AXIS2_PLACEMENT_3D('',#1526,#1247,#1248);
#1074=AXIS2_PLACEMENT_3D('',#1532,#1252,#1253);
#1075=AXIS2_PLACEMENT_3D('',#1535,#1256,#1257);
#1076=AXIS2_PLACEMENT_3D('',#1536,#1258,#1259);
#1077=AXIS2_PLACEMENT_3D('',#1545,#1264,#1265);
#1078=AXIS2_PLACEMENT_3D('',#1551,#1269,#1270);
#1079=AXIS2_PLACEMENT_3D('',#1557,#1274,#1275);
#1080=AXIS2_PLACEMENT_3D('',#1560,#1278,#1279);
#1081=AXIS2_PLACEMENT_3D('',#1561,#1280,#1281);
#1082=AXIS2_PLACEMENT_3D('',#1570,#1286,#1287);
#1083=AXIS2_PLACEMENT_3D('',#1576,#1291,#1292);
#1084=AXIS2_PLACEMENT_3D('',#1582,#1296,#1297);
#1085=AXIS2_PLACEMENT_3D('',#1585,#1300,#1301);
#1086=AXIS2_PLACEMENT_3D('',#1586,#1302,#1303);
#1087=AXIS2_PLACEMENT_3D('',#1595,#1308,#1309);
#1088=AXIS2_PLACEMENT_3D('',#1601,#1313,#1314);
#1089=AXIS2_PLACEMENT_3D('',#1607,#1318,#1319);
#1090=AXIS2_PLACEMENT_3D('',#1613,#1323,#1324);
#1091=AXIS2_PLACEMENT_3D('',#1619,#1328,#1329);
#1092=AXIS2_PLACEMENT_3D('',#1625,#1333,#1334);
#1093=AXIS2_PLACEMENT_3D('',#1628,#1337,#1338);
#1094=AXIS2_PLACEMENT_3D('',#1629,#1339,#1340);
#1095=AXIS2_PLACEMENT_3D('',#1630,#1341,#1342);
#1096=AXIS2_PLACEMENT_3D('',#1631,#1343,#1344);
#1097=AXIS2_PLACEMENT_3D('',#1632,#1345,#1346);
#1098=AXIS2_PLACEMENT_3D('',#1633,#1347,#1348);
#1099=AXIS2_PLACEMENT_3D('',#1634,#1349,#1350);
#1100=AXIS2_PLACEMENT_3D('',#1635,#1351,#1352);
#1101=AXIS2_PLACEMENT_3D('',#1636,#1353,#1354);
#1102=AXIS2_PLACEMENT_3D('',#1637,#1355,#1356);
#1103=AXIS2_PLACEMENT_3D('',#1638,#1357,#1358);
#1104=AXIS2_PLACEMENT_3D('',#1639,#1359,#1360);
#1105=AXIS2_PLACEMENT_3D('',#1640,#1361,#1362);
#1106=AXIS2_PLACEMENT_3D('',#1641,#1363,#1364);
#1107=AXIS2_PLACEMENT_3D('',#1642,#1365,#1366);
#1108=AXIS2_PLACEMENT_3D('',#1643,#1367,#1368);
#1109=AXIS2_PLACEMENT_3D('',#1644,#1369,#1370);
#1110=AXIS2_PLACEMENT_3D('',#1645,#1371,#1372);
#1111=AXIS2_PLACEMENT_3D('',#1646,#1373,#1374);
#1112=AXIS2_PLACEMENT_3D('',#1647,#1375,#1376);
#1113=AXIS2_PLACEMENT_3D('',#1648,#1377,#1378);
#1114=AXIS2_PLACEMENT_3D('',#1649,#1379,#1380);
#1115=AXIS2_PLACEMENT_3D('',#1650,#1381,#1382);
#1116=AXIS2_PLACEMENT_3D('',#1651,#1383,#1384);
#1117=AXIS2_PLACEMENT_3D('',#1652,#1385,#1386);
#1118=AXIS2_PLACEMENT_3D('',#1653,#1387,#1388);
#1119=AXIS2_PLACEMENT_3D('',#1654,#1389,#1390);
#1120=AXIS2_PLACEMENT_3D('',#1655,#1391,#1392);
#1121=AXIS2_PLACEMENT_3D('',#1656,#1393,#1394);
#1122=AXIS2_PLACEMENT_3D('',#1657,#1395,#1396);
#1123=AXIS2_PLACEMENT_3D('',#1658,#1397,#1398);
#1124=DIRECTION('axis',(0.,0.,1.));
#1125=DIRECTION('refdir',(1.,0.,0.));
#1126=DIRECTION('axis',(0.,0.,1.));
#1127=DIRECTION('refdir',(1.,0.,0.));
#1128=DIRECTION('axis',(0.,0.,1.));
#1129=DIRECTION('refdir',(1.,0.,0.));
#1130=DIRECTION('axis',(0.,0.,1.));
#1131=DIRECTION('refdir',(1.,0.,0.));
#1132=DIRECTION('axis',(0.,0.,1.));
#1133=DIRECTION('refdir',(1.,0.,0.));
#1134=DIRECTION('axis',(0.,0.,1.));
#1135=DIRECTION('refdir',(1.,0.,0.));
#1136=DIRECTION('axis',(0.,0.,1.));
#1137=DIRECTION('refdir',(1.,0.,0.));
#1138=DIRECTION('axis',(0.,0.,1.));
#1139=DIRECTION('refdir',(1.,0.,0.));
#1140=DIRECTION('axis',(0.,0.,1.));
#1141=DIRECTION('refdir',(1.,0.,0.));
#1142=DIRECTION('axis',(0.,0.,1.));
#1143=DIRECTION('refdir',(1.,0.,0.));
#1144=DIRECTION('axis',(0.,0.,1.));
#1145=DIRECTION('refdir',(1.,0.,0.));
#1146=DIRECTION('axis',(0.,0.,1.));
#1147=DIRECTION('refdir',(1.,0.,0.));
#1148=DIRECTION('center_axis',(1.,0.,0.));
#1149=DIRECTION('ref_axis',(0.,1.,0.));
#1150=DIRECTION('',(0.,-1.,0.));
#1151=DIRECTION('',(0.,0.,1.));
#1152=DIRECTION('',(0.,1.,0.));
#1153=DIRECTION('',(0.,0.,1.));
#1154=DIRECTION('center_axis',(0.,-1.,0.));
#1155=DIRECTION('ref_axis',(1.,0.,0.));
#1156=DIRECTION('',(-1.,0.,0.));
#1157=DIRECTION('',(1.,0.,0.));
#1158=DIRECTION('',(0.,0.,1.));
#1159=DIRECTION('center_axis',(-1.,0.,0.));
#1160=DIRECTION('ref_axis',(0.,-1.,0.));
#1161=DIRECTION('',(0.,1.,0.));
#1162=DIRECTION('',(0.,-1.,0.));
#1163=DIRECTION('',(0.,0.,1.));
#1164=DIRECTION('center_axis',(0.,1.,0.));
#1165=DIRECTION('ref_axis',(-1.,0.,0.));
#1166=DIRECTION('',(1.,0.,0.));
#1167=DIRECTION('',(-1.,0.,0.));
#1168=DIRECTION('center_axis',(0.,0.,1.));
#1169=DIRECTION('ref_axis',(1.,0.,0.));
#1170=DIRECTION('center_axis',(1.,0.,0.));
#1171=DIRECTION('ref_axis',(0.,1.,0.));
#1172=DIRECTION('',(0.,-1.,0.));
#1173=DIRECTION('',(0.,0.,1.));
#1174=DIRECTION('',(0.,1.,0.));
#1175=DIRECTION('',(0.,0.,1.));
#1176=DIRECTION('center_axis',(0.,-1.,0.));
#1177=DIRECTION('ref_axis',(1.,0.,0.));
#1178=DIRECTION('',(-1.,0.,0.));
#1179=DIRECTION('',(1.,0.,0.));
#1180=DIRECTION('',(0.,0.,1.));
#1181=DIRECTION('center_axis',(-1.,0.,0.));
#1182=DIRECTION('ref_axis',(0.,-1.,0.));
#1183=DIRECTION('',(0.,1.,0.));
#1184=DIRECTION('',(0.,-1.,0.));
#1185=DIRECTION('',(0.,0.,1.));
#1186=DIRECTION('center_axis',(0.,1.,0.));
#1187=DIRECTION('ref_axis',(-1.,0.,0.));
#1188=DIRECTION('',(1.,0.,0.));
#1189=DIRECTION('',(-1.,0.,0.));
#1190=DIRECTION('center_axis',(0.,0.,1.));
#1191=DIRECTION('ref_axis',(1.,0.,0.));
#1192=DIRECTION('center_axis',(-1.,0.,0.));
#1193=DIRECTION('ref_axis',(0.,-1.,0.));
#1194=DIRECTION('',(0.,1.,0.));
#1195=DIRECTION('',(0.,0.,1.));
#1196=DIRECTION('',(0.,-1.,0.));
#1197=DIRECTION('',(0.,0.,1.));
#1198=DIRECTION('center_axis',(0.,1.,0.));
#1199=DIRECTION('ref_axis',(-1.,0.,0.));
#1200=DIRECTION('',(1.,0.,0.));
#1201=DIRECTION('',(-1.,0.,0.));
#1202=DIRECTION('',(0.,0.,1.));
#1203=DIRECTION('center_axis',(1.,0.,0.));
#1204=DIRECTION('ref_axis',(0.,1.,0.));
#1205=DIRECTION('',(0.,-1.,0.));
#1206=DIRECTION('',(0.,1.,0.));
#1207=DIRECTION('',(0.,0.,1.));
#1208=DIRECTION('center_axis',(0.,-1.,0.));
#1209=DIRECTION('ref_axis',(1.,0.,0.));
#1210=DIRECTION('',(-1.,0.,0.));
#1211=DIRECTION('',(1.,0.,0.));
#1212=DIRECTION('center_axis',(0.,0.,1.));
#1213=DIRECTION('ref_axis',(1.,0.,0.));
#1214=DIRECTION('center_axis',(-0.866025403784441,0.499999999999997,0.));
#1215=DIRECTION('ref_axis',(-0.499999999999997,-0.86602540378444,0.));
#1216=DIRECTION('',(0.499999999999997,0.86602540378444,0.));
#1217=DIRECTION('',(0.,0.,1.));
#1218=DIRECTION('',(-0.499999999999997,-0.86602540378444,0.));
#1219=DIRECTION('',(0.,0.,1.));
#1220=DIRECTION('center_axis',(0.499999999999997,0.866025403784441,0.));
#1221=DIRECTION('ref_axis',(-0.86602540378444,0.499999999999997,0.));
#1222=DIRECTION('',(0.86602540378444,-0.499999999999997,0.));
#1223=DIRECTION('',(-0.86602540378444,0.499999999999997,0.));
#1224=DIRECTION('',(0.,0.,1.));
#1225=DIRECTION('center_axis',(0.866025403784444,-0.499999999999991,0.));
#1226=DIRECTION('ref_axis',(0.499999999999991,0.866025403784444,0.));
#1227=DIRECTION('',(-0.499999999999991,-0.866025403784444,0.));
#1228=DIRECTION('',(0.499999999999991,0.866025403784444,0.));
#1229=DIRECTION('',(0.,0.,1.));
#1230=DIRECTION('center_axis',(-0.499999999999996,-0.866025403784441,0.));
#1231=DIRECTION('ref_axis',(0.866025403784441,-0.499999999999996,0.));
#1232=DIRECTION('',(0.866025403784441,-0.499999999999996,0.));
#1233=DIRECTION('',(0.866025403784441,-0.499999999999996,0.));
#1234=DIRECTION('center_axis',(0.,0.,1.));
#1235=DIRECTION('ref_axis',(1.,0.,0.));
#1236=DIRECTION('center_axis',(-1.,0.,0.));
#1237=DIRECTION('ref_axis',(0.,-1.,0.));
#1238=DIRECTION('',(0.,1.,0.));
#1239=DIRECTION('',(0.,0.,1.));
#1240=DIRECTION('',(0.,-1.,0.));
#1241=DIRECTION('',(0.,0.,1.));
#1242=DIRECTION('center_axis',(0.,1.,0.));
#1243=DIRECTION('ref_axis',(-1.,0.,0.));
#1244=DIRECTION('',(1.,0.,0.));
#1245=DIRECTION('',(-1.,0.,0.));
#1246=DIRECTION('',(0.,0.,1.));
#1247=DIRECTION('center_axis',(1.,0.,0.));
#1248=DIRECTION('ref_axis',(0.,1.,0.));
#1249=DIRECTION('',(0.,-1.,0.));
#1250=DIRECTION('',(0.,1.,0.));
#1251=DIRECTION('',(0.,0.,1.));
#1252=DIRECTION('center_axis',(0.,-1.,0.));
#1253=DIRECTION('ref_axis',(1.,0.,0.));
#1254=DIRECTION('',(-1.,0.,0.));
#1255=DIRECTION('',(1.,0.,0.));
#1256=DIRECTION('center_axis',(0.,0.,1.));
#1257=DIRECTION('ref_axis',(1.,0.,0.));
#1258=DIRECTION('center_axis',(-1.,0.,0.));
#1259=DIRECTION('ref_axis',(0.,-1.,0.));
#1260=DIRECTION('',(0.,1.,0.));
#1261=DIRECTION('',(0.,0.,1.));
#1262=DIRECTION('',(0.,-1.,0.));
#1263=DIRECTION('',(0.,0.,1.));
#1264=DIRECTION('center_axis',(0.,1.,0.));
#1265=DIRECTION('ref_axis',(-1.,0.,0.));
#1266=DIRECTION('',(1.,0.,0.));
#1267=DIRECTION('',(-1.,0.,0.));
#1268=DIRECTION('',(0.,0.,1.));
#1269=DIRECTION('center_axis',(1.,0.,0.));
#1270=DIRECTION('ref_axis',(0.,1.,0.));
#1271=DIRECTION('',(0.,-1.,0.));
#1272=DIRECTION('',(0.,1.,0.));
#1273=DIRECTION('',(0.,0.,1.));
#1274=DIRECTION('center_axis',(0.,-1.,0.));
#1275=DIRECTION('ref_axis',(1.,0.,0.));
#1276=DIRECTION('',(-1.,0.,0.));
#1277=DIRECTION('',(1.,0.,0.));
#1278=DIRECTION('center_axis',(0.,0.,1.));
#1279=DIRECTION('ref_axis',(1.,0.,0.));
#1280=DIRECTION('center_axis',(0.866025403784439,0.499999999999999,0.));
#1281=DIRECTION('ref_axis',(-0.499999999999999,0.866025403784439,0.));
#1282=DIRECTION('',(0.499999999999999,-0.866025403784439,0.));
#1283=DIRECTION('',(0.,0.,1.));
#1284=DIRECTION('',(-0.499999999999999,0.866025403784439,0.));
#1285=DIRECTION('',(0.,0.,1.));
#1286=DIRECTION('center_axis',(0.5,-0.866025403784439,0.));
#1287=DIRECTION('ref_axis',(0.866025403784439,0.5,0.));
#1288=DIRECTION('',(-0.866025403784439,-0.5,0.));
#1289=DIRECTION('',(0.866025403784439,0.5,0.));
#1290=DIRECTION('',(0.,0.,1.));
#1291=DIRECTION('center_axis',(-0.866025403784441,-0.499999999999996,0.));
#1292=DIRECTION('ref_axis',(0.499999999999996,-0.866025403784441,0.));
#1293=DIRECTION('',(0.499999999999996,-0.866025403784441,0.));
#1294=DIRECTION('',(0.499999999999996,-0.866025403784441,0.));
#1295=DIRECTION('',(0.,0.,1.));
#1296=DIRECTION('center_axis',(-0.499999999999999,0.866025403784439,0.));
#1297=DIRECTION('ref_axis',(-0.866025403784439,-0.499999999999999,0.));
#1298=DIRECTION('',(-0.866025403784439,-0.499999999999999,0.));
#1299=DIRECTION('',(-0.866025403784439,-0.499999999999999,0.));
#1300=DIRECTION('center_axis',(0.,0.,1.));
#1301=DIRECTION('ref_axis',(1.,0.,0.));
#1302=DIRECTION('center_axis',(1.,0.,0.));
#1303=DIRECTION('ref_axis',(0.,1.,0.));
#1304=DIRECTION('',(0.,-1.,0.));
#1305=DIRECTION('',(0.,0.,1.));
#1306=DIRECTION('',(0.,1.,0.));
#1307=DIRECTION('',(0.,0.,1.));
#1308=DIRECTION('center_axis',(0.49995119554607,-0.866053579215544,0.));
#1309=DIRECTION('ref_axis',(0.866053579215544,0.49995119554607,0.));
#1310=DIRECTION('',(-0.866053579215544,-0.49995119554607,0.));
#1311=DIRECTION('',(0.866053579215544,0.49995119554607,0.));
#1312=DIRECTION('',(0.,0.,1.));
#1313=DIRECTION('center_axis',(0.,-1.,0.));
#1314=DIRECTION('ref_axis',(1.,0.,0.));
#1315=DIRECTION('',(-1.,0.,0.));
#1316=DIRECTION('',(1.,0.,0.));
#1317=DIRECTION('',(0.,0.,1.));
#1318=DIRECTION('center_axis',(-0.500098151739303,-0.86596872843477,0.));
#1319=DIRECTION('ref_axis',(0.86596872843477,-0.500098151739303,0.));
#1320=DIRECTION('',(-0.86596872843477,0.500098151739303,0.));
#1321=DIRECTION('',(0.86596872843477,-0.500098151739303,0.));
#1322=DIRECTION('',(0.,0.,1.));
#1323=DIRECTION('center_axis',(-0.999999967599961,0.000254558592085935,
0.));
#1324=DIRECTION('ref_axis',(-0.000254558592085935,-0.999999967599961,0.));
#1325=DIRECTION('',(-0.000254558592085935,-0.999999967599961,0.));
#1326=DIRECTION('',(-0.000254558592085935,-0.999999967599961,0.));
#1327=DIRECTION('',(0.,0.,1.));
#1328=DIRECTION('center_axis',(-0.999999967598754,0.000254563334238408,
0.));
#1329=DIRECTION('ref_axis',(-0.000254563334238408,-0.999999967598754,0.));
#1330=DIRECTION('',(-0.000254563334238408,-0.999999967598754,0.));
#1331=DIRECTION('',(-0.000254563334238408,-0.999999967598754,0.));
#1332=DIRECTION('',(0.,0.,1.));
#1333=DIRECTION('center_axis',(0.,1.,0.));
#1334=DIRECTION('ref_axis',(-1.,0.,0.));
#1335=DIRECTION('',(1.,0.,0.));
#1336=DIRECTION('',(-1.,0.,0.));
#1337=DIRECTION('center_axis',(0.,0.,1.));
#1338=DIRECTION('ref_axis',(1.,0.,0.));
#1339=DIRECTION('center_axis',(0.,0.,1.));
#1340=DIRECTION('ref_axis',(1.,0.,0.));
#1341=DIRECTION('',(0.,0.,1.));
#1342=DIRECTION('',(1.,0.,0.));
#1343=DIRECTION('',(0.,0.,1.));
#1344=DIRECTION('',(-1.,1.224646799147E-16,0.));
#1345=DIRECTION('',(-1.,1.144237745222E-17,-1.110223024625E-16));
#1346=DIRECTION('',(-1.144237745222E-17,-1.,-1.224646799147E-16));
#1347=DIRECTION('',(0.,0.,1.));
#1348=DIRECTION('',(1.,0.,0.));
#1349=DIRECTION('',(0.,0.,1.));
#1350=DIRECTION('',(1.110223024625E-16,1.,0.));
#1351=DIRECTION('',(0.,0.,1.));
#1352=DIRECTION('',(1.110223024625E-16,1.,0.));
#1353=DIRECTION('',(0.,0.,1.));
#1354=DIRECTION('',(-1.,1.224646799147E-16,0.));
#1355=DIRECTION('',(0.,0.,1.));
#1356=DIRECTION('',(-1.,1.224646799147E-16,0.));
#1357=DIRECTION('',(-1.,-2.334869823773E-16,-1.110223024625E-16));
#1358=DIRECTION('',(2.334869823773E-16,-1.,1.224646799147E-16));
#1359=DIRECTION('',(0.,0.,1.));
#1360=DIRECTION('',(1.,0.,0.));
#1361=DIRECTION('',(0.,0.,1.));
#1362=DIRECTION('',(1.,0.,0.));
#1363=DIRECTION('',(0.,0.,1.));
#1364=DIRECTION('',(-1.,1.224646799147E-16,0.));
#1365=DIRECTION('',(0.,0.,1.));
#1366=DIRECTION('',(1.110223024625E-16,1.,0.));
#1367=DIRECTION('',(0.,0.,1.));
#1368=DIRECTION('',(1.110223024625E-16,1.,0.));
#1369=DIRECTION('',(0.,0.,1.));
#1370=DIRECTION('',(1.,0.,0.));
#1371=DIRECTION('',(0.,0.,1.));
#1372=DIRECTION('',(-1.,1.224646799147E-16,0.));
#1373=DIRECTION('',(0.,0.,1.));
#1374=DIRECTION('',(1.110223024625E-16,-1.,0.));
#1375=DIRECTION('',(0.,0.,1.));
#1376=DIRECTION('',(1.,0.,0.));
#1377=DIRECTION('',(0.,0.,1.));
#1378=DIRECTION('',(-1.,1.224646799147E-16,0.));
#1379=DIRECTION('',(0.,0.,1.));
#1380=DIRECTION('',(1.,0.,0.));
#1381=DIRECTION('',(0.,0.,1.));
#1382=DIRECTION('',(1.110223024625E-16,1.,0.));
#1383=DIRECTION('',(0.,0.,1.));
#1384=DIRECTION('',(1.,0.,0.));
#1385=DIRECTION('',(0.,0.,1.));
#1386=DIRECTION('',(-1.,1.224646799147E-16,0.));
#1387=DIRECTION('',(0.,0.,1.));
#1388=DIRECTION('',(1.110223024625E-16,1.,0.));
#1389=DIRECTION('',(0.,0.,1.));
#1390=DIRECTION('',(1.,0.,0.));
#1391=DIRECTION('',(0.,0.,1.));
#1392=DIRECTION('',(-1.,1.224646799147E-16,0.));
#1393=DIRECTION('',(0.,0.,1.));
#1394=DIRECTION('',(1.110223024625E-16,-1.,0.));
#1395=DIRECTION('',(0.,0.,1.));
#1396=DIRECTION('',(1.110223024625E-16,1.,0.));
#1397=DIRECTION('',(0.,0.,1.));
#1398=DIRECTION('',(1.,0.,0.));
#1399=CARTESIAN_POINT('',(0.,0.,0.));
#1400=CARTESIAN_POINT('',(0.,0.,0.));
#1401=CARTESIAN_POINT('',(0.,0.,0.));
#1402=CARTESIAN_POINT('',(0.,0.,0.));
#1403=CARTESIAN_POINT('',(0.,0.,0.));
#1404=CARTESIAN_POINT('',(0.,0.,0.));
#1405=CARTESIAN_POINT('',(0.,0.,0.));
#1406=CARTESIAN_POINT('',(0.,0.,0.));
#1407=CARTESIAN_POINT('',(0.,0.,0.));
#1408=CARTESIAN_POINT('',(0.,0.,0.));
#1409=CARTESIAN_POINT('',(0.,0.,0.));
#1410=CARTESIAN_POINT('',(0.,0.,0.));
#1411=CARTESIAN_POINT('Origin',(185.000002756715,-99.2492363099973,2.));
#1412=CARTESIAN_POINT('',(185.000002756715,-97.7492363099973,2.));
#1413=CARTESIAN_POINT('',(185.000002756715,-99.2492363099973,2.));
#1414=CARTESIAN_POINT('',(185.000002756715,-97.7492363099973,2.));
#1415=CARTESIAN_POINT('',(185.000002756715,-97.7492363099973,10.));
#1416=CARTESIAN_POINT('',(185.000002756715,-97.7492363099973,2.));
#1417=CARTESIAN_POINT('',(185.000002756715,-99.2492363099973,10.));
#1418=CARTESIAN_POINT('',(185.000002756715,-112.749000193526,10.));
#1419=CARTESIAN_POINT('',(185.000002756715,-99.2492363099973,2.));
#1420=CARTESIAN_POINT('Origin',(175.000002756715,-99.2492363099973,2.));
#1421=CARTESIAN_POINT('',(175.000002756715,-99.2492363099973,2.));
#1422=CARTESIAN_POINT('',(185.000002756715,-99.2492363099973,2.));
#1423=CARTESIAN_POINT('',(175.000002756715,-99.2492363099973,10.));
#1424=CARTESIAN_POINT('',(159.997583378239,-99.2492363099973,10.));
#1425=CARTESIAN_POINT('',(175.000002756715,-99.2492363099973,2.));
#1426=CARTESIAN_POINT('Origin',(175.000002756715,-97.7492363099973,2.));
#1427=CARTESIAN_POINT('',(175.000002756715,-97.7492363099973,2.));
#1428=CARTESIAN_POINT('',(175.000002756715,-99.2492363099973,2.));
#1429=CARTESIAN_POINT('',(175.000002756715,-97.7492363099973,10.));
#1430=CARTESIAN_POINT('',(175.000002756715,-111.999000193526,10.));
#1431=CARTESIAN_POINT('',(175.000002756715,-97.7492363099973,2.));
#1432=CARTESIAN_POINT('Origin',(185.000002756715,-97.7492363099973,2.));
#1433=CARTESIAN_POINT('',(175.000002756715,-97.7492363099973,2.));
#1434=CARTESIAN_POINT('',(164.997583378239,-97.7492363099973,10.));
#1435=CARTESIAN_POINT('Origin',(180.000002756715,-98.4992363099973,2.));
#1436=CARTESIAN_POINT('Origin',(111.040831329567,-99.2500014901161,2.));
#1437=CARTESIAN_POINT('',(111.040831329567,-97.7500014901161,2.));
#1438=CARTESIAN_POINT('',(111.040831329567,-99.2500014901161,2.));
#1439=CARTESIAN_POINT('',(111.040831329567,-97.7500014901161,2.));
#1440=CARTESIAN_POINT('',(111.040831329567,-97.7500014901161,10.));
#1441=CARTESIAN_POINT('',(111.040831329567,-97.7500014901161,2.));
#1442=CARTESIAN_POINT('',(111.040831329567,-99.2500014901161,10.));
#1443=CARTESIAN_POINT('',(111.040831329567,-112.749382783585,10.));
#1444=CARTESIAN_POINT('',(111.040831329567,-99.2500014901161,2.));
#1445=CARTESIAN_POINT('Origin',(101.040831329567,-99.2500014901161,2.));
#1446=CARTESIAN_POINT('',(101.040831329567,-99.2500014901161,2.));
#1447=CARTESIAN_POINT('',(111.040831329567,-99.2500014901161,2.));
#1448=CARTESIAN_POINT('',(101.040831329567,-99.2500014901161,10.));
#1449=CARTESIAN_POINT('',(123.017997664665,-99.2500014901161,10.));
#1450=CARTESIAN_POINT('',(101.040831329567,-99.2500014901161,2.));
#1451=CARTESIAN_POINT('Origin',(101.040831329567,-97.7500014901161,2.));
#1452=CARTESIAN_POINT('',(101.040831329567,-97.7500014901161,2.));
#1453=CARTESIAN_POINT('',(101.040831329567,-99.2500014901161,2.));
#1454=CARTESIAN_POINT('',(101.040831329567,-97.7500014901161,10.));
#1455=CARTESIAN_POINT('',(101.040831329567,-111.999382783585,10.));
#1456=CARTESIAN_POINT('',(101.040831329567,-97.7500014901161,2.));
#1457=CARTESIAN_POINT('Origin',(111.040831329567,-97.7500014901161,2.));
#1458=CARTESIAN_POINT('',(101.040831329567,-97.7500014901161,2.));
#1459=CARTESIAN_POINT('',(128.017997664665,-97.7500014901161,10.));
#1460=CARTESIAN_POINT('Origin',(106.040831329567,-98.5000014901161,2.));
#1461=CARTESIAN_POINT('Origin',(190.87,-102.000001966953,2.));
#1462=CARTESIAN_POINT('',(190.87,-117.000001966953,2.));
#1463=CARTESIAN_POINT('',(190.87,-102.000001966953,2.));
#1464=CARTESIAN_POINT('',(190.87,-117.000001966953,2.));
#1465=CARTESIAN_POINT('',(190.87,-117.000001966953,10.));
#1466=CARTESIAN_POINT('',(190.87,-117.000001966953,2.));
#1467=CARTESIAN_POINT('',(190.87,-102.000001966953,10.));
#1468=CARTESIAN_POINT('',(190.87,-114.124383022004,10.));
#1469=CARTESIAN_POINT('',(190.87,-102.000001966953,2.));
#1470=CARTESIAN_POINT('Origin',(192.37,-102.000001966953,2.));
#1471=CARTESIAN_POINT('',(192.37,-102.000001966953,2.));
#1472=CARTESIAN_POINT('',(190.87,-102.000001966953,2.));
#1473=CARTESIAN_POINT('',(192.37,-102.000001966953,10.));
#1474=CARTESIAN_POINT('',(168.682581999882,-102.000001966953,10.));
#1475=CARTESIAN_POINT('',(192.37,-102.000001966953,2.));
#1476=CARTESIAN_POINT('Origin',(192.37,-117.000001966953,2.));
#1477=CARTESIAN_POINT('',(192.37,-117.000001966953,2.));
#1478=CARTESIAN_POINT('',(192.37,-102.000001966953,2.));
#1479=CARTESIAN_POINT('',(192.37,-117.000001966953,10.));
#1480=CARTESIAN_POINT('',(192.37,-121.624383022004,10.));
#1481=CARTESIAN_POINT('',(192.37,-117.000001966953,2.));
#1482=CARTESIAN_POINT('Origin',(190.87,-117.000001966953,2.));
#1483=CARTESIAN_POINT('',(192.37,-117.000001966953,2.));
#1484=CARTESIAN_POINT('',(167.932581999882,-117.000001966953,10.));
#1485=CARTESIAN_POINT('Origin',(191.62,-109.500001966953,2.));
#1486=CARTESIAN_POINT('Origin',(102.344744334692,-137.277500354856,2.));
#1487=CARTESIAN_POINT('',(101.094744334692,-139.442563864318,2.));
#1488=CARTESIAN_POINT('',(102.344744334692,-137.277500354856,2.));
#1489=CARTESIAN_POINT('',(101.094744334692,-139.442563864318,2.));
#1490=CARTESIAN_POINT('',(101.094744334692,-139.442563864318,10.));
#1491=CARTESIAN_POINT('',(101.094744334692,-139.442563864318,2.));
#1492=CARTESIAN_POINT('',(102.344744334692,-137.277500354856,10.));
#1493=CARTESIAN_POINT('',(110.06383823988,-123.907637522676,10.));
#1494=CARTESIAN_POINT('',(102.344744334692,-137.277500354856,2.));
#1495=CARTESIAN_POINT('Origin',(119.665252410381,-147.277500354856,2.));
#1496=CARTESIAN_POINT('',(119.665252410381,-147.277500354856,2.));
#1497=CARTESIAN_POINT('',(102.344744334692,-137.277500354856,2.));
#1498=CARTESIAN_POINT('',(119.665252410381,-147.277500354856,10.));
#1499=CARTESIAN_POINT('',(124.611114299884,-150.132995048136,10.));
#1500=CARTESIAN_POINT('',(119.665252410381,-147.277500354856,2.));
#1501=CARTESIAN_POINT('Origin',(118.415252410381,-149.442563864317,2.));
#1502=CARTESIAN_POINT('',(118.415252410381,-149.442563864317,2.));
#1503=CARTESIAN_POINT('',(119.665252410381,-147.277500354856,2.));
#1504=CARTESIAN_POINT('',(118.415252410381,-149.442563864317,10.));
#1505=CARTESIAN_POINT('',(126.759346315568,-134.990169277406,10.));
#1506=CARTESIAN_POINT('',(118.415252410381,-149.442563864317,2.));
#1507=CARTESIAN_POINT('Origin',(101.094744334692,-139.442563864318,2.));
#1508=CARTESIAN_POINT('',(101.094744334692,-139.442563864318,2.));
#1509=CARTESIAN_POINT('',(114.70086026204,-147.298058557597,10.));
#1510=CARTESIAN_POINT('Origin',(110.379998372536,-143.360032109587,2.));
#1511=CARTESIAN_POINT('Origin',(131.000001952052,-153.248291844112,2.));
#1512=CARTESIAN_POINT('',(131.000001952052,-154.748291844112,2.));
#1513=CARTESIAN_POINT('',(131.000001952052,-153.248291844112,2.));
#1514=CARTESIAN_POINT('',(131.000001952052,-154.748291844112,2.));
#1515=CARTESIAN_POINT('',(131.000001952052,-154.748291844112,10.));
#1516=CARTESIAN_POINT('',(131.000001952052,-154.748291844112,2.));
#1517=CARTESIAN_POINT('',(131.000001952052,-153.248291844112,10.));
#1518=CARTESIAN_POINT('',(131.000001952052,-139.748527960584,10.));
#1519=CARTESIAN_POINT('',(131.000001952052,-153.248291844112,2.));
#1520=CARTESIAN_POINT('Origin',(159.000001952052,-153.248291844112,2.));
#1521=CARTESIAN_POINT('',(159.000001952052,-153.248291844112,2.));
#1522=CARTESIAN_POINT('',(131.000001952052,-153.248291844112,2.));
#1523=CARTESIAN_POINT('',(159.000001952052,-153.248291844112,10.));
#1524=CARTESIAN_POINT('',(151.997582975908,-153.248291844112,10.));
#1525=CARTESIAN_POINT('',(159.000001952052,-153.248291844112,2.));
#1526=CARTESIAN_POINT('Origin',(159.000001952052,-154.748291844112,2.));
#1527=CARTESIAN_POINT('',(159.000001952052,-154.748291844112,2.));
#1528=CARTESIAN_POINT('',(159.000001952052,-153.248291844112,2.));
#1529=CARTESIAN_POINT('',(159.000001952052,-154.748291844112,10.));
#1530=CARTESIAN_POINT('',(159.000001952052,-140.498527960584,10.));
#1531=CARTESIAN_POINT('',(159.000001952052,-154.748291844112,2.));
#1532=CARTESIAN_POINT('Origin',(131.000001952052,-154.748291844112,2.));
#1533=CARTESIAN_POINT('',(159.000001952052,-154.748291844112,2.));
#1534=CARTESIAN_POINT('',(137.997582975908,-154.748291844112,10.));
#1535=CARTESIAN_POINT('Origin',(145.000001952052,-153.998291844112,2.));
#1536=CARTESIAN_POINT('Origin',(97.7500014901161,-99.9453530087677,2.));
#1537=CARTESIAN_POINT('',(97.7500014901161,-119.945353008768,2.));
#1538=CARTESIAN_POINT('',(97.7500014901161,-99.9453530087677,2.));
#1539=CARTESIAN_POINT('',(97.7500014901161,-119.945353008768,2.));
#1540=CARTESIAN_POINT('',(97.7500014901161,-119.945353008768,10.));
#1541=CARTESIAN_POINT('',(97.7500014901161,-119.945353008768,2.));
#1542=CARTESIAN_POINT('',(97.7500014901161,-99.9453530087677,10.));
#1543=CARTESIAN_POINT('',(97.7500014901161,-113.097058542911,10.));
#1544=CARTESIAN_POINT('',(97.7500014901161,-99.9453530087677,2.));
#1545=CARTESIAN_POINT('Origin',(99.2500014901161,-99.9453530087677,2.));
#1546=CARTESIAN_POINT('',(99.2500014901161,-99.9453530087677,2.));
#1547=CARTESIAN_POINT('',(97.7500014901161,-99.9453530087677,2.));
#1548=CARTESIAN_POINT('',(99.2500014901161,-99.9453530087677,10.));
#1549=CARTESIAN_POINT('',(122.12258274494,-99.9453530087677,10.));
#1550=CARTESIAN_POINT('',(99.2500014901161,-99.9453530087677,2.));
#1551=CARTESIAN_POINT('Origin',(99.2500014901161,-119.945353008768,2.));
#1552=CARTESIAN_POINT('',(99.2500014901161,-119.945353008768,2.));
#1553=CARTESIAN_POINT('',(99.2500014901161,-99.9453530087677,2.));
#1554=CARTESIAN_POINT('',(99.2500014901161,-119.945353008768,10.));
#1555=CARTESIAN_POINT('',(99.2500014901161,-123.097058542911,10.));
#1556=CARTESIAN_POINT('',(99.2500014901161,-119.945353008768,2.));
#1557=CARTESIAN_POINT('Origin',(97.7500014901161,-119.945353008768,2.));
#1558=CARTESIAN_POINT('',(99.2500014901161,-119.945353008768,2.));
#1559=CARTESIAN_POINT('',(121.37258274494,-119.945353008768,10.));
#1560=CARTESIAN_POINT('Origin',(98.5000014901161,-109.945353008768,2.));
#1561=CARTESIAN_POINT('Origin',(189.249800620956,-139.365398499137,2.));
#1562=CARTESIAN_POINT('',(187.999800620956,-137.200334989676,2.));
#1563=CARTESIAN_POINT('',(189.249800620956,-139.365398499137,2.));
#1564=CARTESIAN_POINT('',(187.999800620956,-137.200334989676,2.));
#1565=CARTESIAN_POINT('',(187.999800620956,-137.200334989676,10.));
#1566=CARTESIAN_POINT('',(187.999800620956,-137.200334989676,2.));
#1567=CARTESIAN_POINT('',(189.249800620956,-139.365398499137,10.));
#1568=CARTESIAN_POINT('',(180.878136387888,-124.865250703556,10.));
#1569=CARTESIAN_POINT('',(189.249800620956,-139.365398499137,2.));
#1570=CARTESIAN_POINT('Origin',(171.929292545268,-149.365398499137,2.));
#1571=CARTESIAN_POINT('',(171.929292545268,-149.365398499137,2.));
#1572=CARTESIAN_POINT('',(189.249800620956,-139.365398499137,2.));
#1573=CARTESIAN_POINT('',(171.929292545268,-149.365398499137,10.));
#1574=CARTESIAN_POINT('',(166.833892505584,-152.307229083677,10.));
#1575=CARTESIAN_POINT('',(171.929292545268,-149.365398499137,2.));
#1576=CARTESIAN_POINT('Origin',(170.679292545268,-147.200334989676,2.));
#1577=CARTESIAN_POINT('',(170.679292545268,-147.200334989676,2.));
#1578=CARTESIAN_POINT('',(170.679292545268,-147.200334989676,2.));
#1579=CARTESIAN_POINT('',(170.679292545268,-147.200334989676,10.));
#1580=CARTESIAN_POINT('',(162.9326283122,-133.782718948825,10.));
#1581=CARTESIAN_POINT('',(170.679292545268,-147.200334989676,2.));
#1582=CARTESIAN_POINT('Origin',(187.999800620956,-137.200334989676,2.));
#1583=CARTESIAN_POINT('',(187.999800620956,-137.200334989676,2.));
#1584=CARTESIAN_POINT('',(174.244146543428,-145.142165574216,10.));
#1585=CARTESIAN_POINT('Origin',(179.964546583112,-143.282866744407,2.));
#1586=CARTESIAN_POINT('Origin',(193.,-138.,10.));
#1587=CARTESIAN_POINT('',(193.,-96.9992363099973,10.));
#1588=CARTESIAN_POINT('',(193.,-138.,10.));
#1589=CARTESIAN_POINT('',(193.,-96.9992363099973,10.));
#1590=CARTESIAN_POINT('',(193.,-96.9992363099973,13.));
#1591=CARTESIAN_POINT('',(193.,-96.9992363099973,10.));
#1592=CARTESIAN_POINT('',(193.,-138.,13.));
#1593=CARTESIAN_POINT('',(193.,-96.9992363099973,13.));
#1594=CARTESIAN_POINT('',(193.,-138.,10.));
#1595=CARTESIAN_POINT('Origin',(162.688124727456,-155.498291844112,10.));
#1596=CARTESIAN_POINT('',(162.688124727456,-155.498291844112,10.));
#1597=CARTESIAN_POINT('',(193.,-138.,10.));
#1598=CARTESIAN_POINT('',(162.688124727456,-155.498291844112,13.));
#1599=CARTESIAN_POINT('',(193.,-138.,13.));
#1600=CARTESIAN_POINT('',(162.688124727456,-155.498291844112,10.));
#1601=CARTESIAN_POINT('Origin',(127.299233494744,-155.498291844112,10.));
#1602=CARTESIAN_POINT('',(127.299233494744,-155.498291844112,10.));
#1603=CARTESIAN_POINT('',(162.688124727456,-155.498291844112,10.));
#1604=CARTESIAN_POINT('',(127.299233494744,-155.498291844112,13.));
#1605=CARTESIAN_POINT('',(162.688124727456,-155.498291844112,13.));
#1606=CARTESIAN_POINT('',(127.299233494744,-155.498291844112,10.));
#1607=CARTESIAN_POINT('Origin',(96.9903279995274,-137.994856533237,10.));
#1608=CARTESIAN_POINT('',(96.9903279995274,-137.994856533237,10.));
#1609=CARTESIAN_POINT('',(127.299233494744,-155.498291844112,10.));
#1610=CARTESIAN_POINT('',(96.9903279995274,-137.994856533237,13.));
#1611=CARTESIAN_POINT('',(127.299233494744,-155.498291844112,13.));
#1612=CARTESIAN_POINT('',(96.9903279995274,-137.994856533237,10.));
#1613=CARTESIAN_POINT('Origin',(96.9918542365082,-131.999235175996,10.));
#1614=CARTESIAN_POINT('',(96.9918540705329,-131.999235175954,10.));
#1615=CARTESIAN_POINT('',(97.0007637872312,-96.9992363099973,10.));
#1616=CARTESIAN_POINT('',(96.9918540705329,-131.999235175954,13.));
#1617=CARTESIAN_POINT('',(97.0007637872312,-96.9992363099973,13.));
#1618=CARTESIAN_POINT('',(96.9918540705329,-131.999235175954,10.));
#1619=CARTESIAN_POINT('Origin',(97.0007637872312,-96.9992363099973,10.));
#1620=CARTESIAN_POINT('',(97.0007637872312,-96.9992363099973,10.));
#1621=CARTESIAN_POINT('',(97.0007637872312,-96.9992363099973,10.));
#1622=CARTESIAN_POINT('',(97.0007637872312,-96.9992363099973,13.));
#1623=CARTESIAN_POINT('',(97.0007637872312,-96.9992363099973,13.));
#1624=CARTESIAN_POINT('',(97.0007637872312,-96.9992363099973,10.));
#1625=CARTESIAN_POINT('Origin',(193.,-96.9992363099973,10.));
#1626=CARTESIAN_POINT('',(97.0007637872312,-96.9992363099973,10.));
#1627=CARTESIAN_POINT('',(97.0007637872312,-96.9992363099973,13.));
#1628=CARTESIAN_POINT('Origin',(144.995163999764,-126.248764077055,13.));
#1629=CARTESIAN_POINT('Origin',(144.995163999764,-126.248764077055,10.));
#1630=CARTESIAN_POINT('',(148.5,-137.5,1.595));
#1631=CARTESIAN_POINT('',(142.25,-118.5,1.595));
#1632=CARTESIAN_POINT('',(140.,-133.75,1.595));
#1633=CARTESIAN_POINT('',(125.25,-117.5,1.595));
#1634=CARTESIAN_POINT('',(142.,-140.725,1.595));
#1635=CARTESIAN_POINT('',(113.,-123.425,1.595));
#1636=CARTESIAN_POINT('',(145.750001,-112.86,1.595));
#1637=CARTESIAN_POINT('',(146.85,-140.15,1.595));
#1638=CARTESIAN_POINT('',(100.455,-122.25,1.595));
#1639=CARTESIAN_POINT('',(0.,0.,0.));
#1640=CARTESIAN_POINT('',(0.,0.,0.));
#1641=CARTESIAN_POINT('',(168.249999,-112.86,1.595));
#1642=CARTESIAN_POINT('',(176.89,-129.250001,1.595));
#1643=CARTESIAN_POINT('',(111.,-123.5,1.595));
#1644=CARTESIAN_POINT('',(127.475,-119.75,1.595));
#1645=CARTESIAN_POINT('',(145.5,-143.,1.595));
#1646=CARTESIAN_POINT('',(112.,-127.25,1.595));
#1647=CARTESIAN_POINT('',(169.85,-117.25,1.595));
#1648=CARTESIAN_POINT('',(164.75,-118.5,1.595));
#1649=CARTESIAN_POINT('',(149.725,-119.75,1.595));
#1650=CARTESIAN_POINT('',(169.,-132.025,1.595));
#1651=CARTESIAN_POINT('',(172.225,-119.5,1.595));
#1652=CARTESIAN_POINT('',(123.750001,-113.11,1.595));
#1653=CARTESIAN_POINT('',(140.25,-140.75,1.595));
#1654=CARTESIAN_POINT('',(147.4,-117.5,1.595));
#1655=CARTESIAN_POINT('',(120.25,-118.5,1.595));
#1656=CARTESIAN_POINT('',(171.75,-131.350001,1.595));
#1657=CARTESIAN_POINT('',(171.55,-125.75,1.595));
#1658=CARTESIAN_POINT('',(112.,-130.75,1.595));
#1659=UNCERTAINTY_MEASURE_WITH_UNIT(LENGTH_MEASURE(0.01),#1685,
'DISTANCE_ACCURACY_VALUE',
'Maximum model space distance between geometric entities at asserted c
onnectivities');
#1660=UNCERTAINTY_MEASURE_WITH_UNIT(LENGTH_MEASURE(0.01),#1685,
'DISTANCE_ACCURACY_VALUE',
'Maximum model space distance between geometric entities at asserted c
onnectivities');
#1661=UNCERTAINTY_MEASURE_WITH_UNIT(LENGTH_MEASURE(0.01),#1685,
'DISTANCE_ACCURACY_VALUE',
'Maximum model space distance between geometric entities at asserted c
onnectivities');
#1662=UNCERTAINTY_MEASURE_WITH_UNIT(LENGTH_MEASURE(0.01),#1685,
'DISTANCE_ACCURACY_VALUE',
'Maximum model space distance between geometric entities at asserted c
onnectivities');
#1663=UNCERTAINTY_MEASURE_WITH_UNIT(LENGTH_MEASURE(0.01),#1685,
'DISTANCE_ACCURACY_VALUE',
'Maximum model space distance between geometric entities at asserted c
onnectivities');
#1664=UNCERTAINTY_MEASURE_WITH_UNIT(LENGTH_MEASURE(0.01),#1685,
'DISTANCE_ACCURACY_VALUE',
'Maximum model space distance between geometric entities at asserted c
onnectivities');
#1665=UNCERTAINTY_MEASURE_WITH_UNIT(LENGTH_MEASURE(0.01),#1685,
'DISTANCE_ACCURACY_VALUE',
'Maximum model space distance between geometric entities at asserted c
onnectivities');
#1666=UNCERTAINTY_MEASURE_WITH_UNIT(LENGTH_MEASURE(0.01),#1685,
'DISTANCE_ACCURACY_VALUE',
'Maximum model space distance between geometric entities at asserted c
onnectivities');
#1667=UNCERTAINTY_MEASURE_WITH_UNIT(LENGTH_MEASURE(0.01),#1685,
'DISTANCE_ACCURACY_VALUE',
'Maximum model space distance between geometric entities at asserted c
onnectivities');
#1668=UNCERTAINTY_MEASURE_WITH_UNIT(LENGTH_MEASURE(0.01),#1685,
'DISTANCE_ACCURACY_VALUE',
'Maximum model space distance between geometric entities at asserted c
onnectivities');
#1669=UNCERTAINTY_MEASURE_WITH_UNIT(LENGTH_MEASURE(0.01),#1685,
'DISTANCE_ACCURACY_VALUE',
'Maximum model space distance between geometric entities at asserted c
onnectivities');
#1670=UNCERTAINTY_MEASURE_WITH_UNIT(LENGTH_MEASURE(0.01),#1685,
'DISTANCE_ACCURACY_VALUE',
'Maximum model space distance between geometric entities at asserted c
onnectivities');
#1671=UNCERTAINTY_MEASURE_WITH_UNIT(LENGTH_MEASURE(0.01),#1685,
'DISTANCE_ACCURACY_VALUE',
'Maximum model space distance between geometric entities at asserted c
onnectivities');
#1672=(
GEOMETRIC_REPRESENTATION_CONTEXT(3)
GLOBAL_UNCERTAINTY_ASSIGNED_CONTEXT((#1659))
GLOBAL_UNIT_ASSIGNED_CONTEXT((#1685,#1687,#1688))
REPRESENTATION_CONTEXT('','3D')
);
#1673=(
GEOMETRIC_REPRESENTATION_CONTEXT(3)
GLOBAL_UNCERTAINTY_ASSIGNED_CONTEXT((#1660))
GLOBAL_UNIT_ASSIGNED_CONTEXT((#1685,#1687,#1688))
REPRESENTATION_CONTEXT('','3D')
);
#1674=(
GEOMETRIC_REPRESENTATION_CONTEXT(3)
GLOBAL_UNCERTAINTY_ASSIGNED_CONTEXT((#1661))
GLOBAL_UNIT_ASSIGNED_CONTEXT((#1685,#1687,#1688))
REPRESENTATION_CONTEXT('','3D')
);
#1675=(
GEOMETRIC_REPRESENTATION_CONTEXT(3)
GLOBAL_UNCERTAINTY_ASSIGNED_CONTEXT((#1662))
GLOBAL_UNIT_ASSIGNED_CONTEXT((#1685,#1687,#1688))
REPRESENTATION_CONTEXT('','3D')
);
#1676=(
GEOMETRIC_REPRESENTATION_CONTEXT(3)
GLOBAL_UNCERTAINTY_ASSIGNED_CONTEXT((#1663))
GLOBAL_UNIT_ASSIGNED_CONTEXT((#1685,#1687,#1688))
REPRESENTATION_CONTEXT('','3D')
);
#1677=(
GEOMETRIC_REPRESENTATION_CONTEXT(3)
GLOBAL_UNCERTAINTY_ASSIGNED_CONTEXT((#1664))
GLOBAL_UNIT_ASSIGNED_CONTEXT((#1685,#1687,#1688))
REPRESENTATION_CONTEXT('','3D')
);
#1678=(
GEOMETRIC_REPRESENTATION_CONTEXT(3)
GLOBAL_UNCERTAINTY_ASSIGNED_CONTEXT((#1665))
GLOBAL_UNIT_ASSIGNED_CONTEXT((#1685,#1687,#1688))
REPRESENTATION_CONTEXT('','3D')
);
#1679=(
GEOMETRIC_REPRESENTATION_CONTEXT(3)
GLOBAL_UNCERTAINTY_ASSIGNED_CONTEXT((#1666))
GLOBAL_UNIT_ASSIGNED_CONTEXT((#1685,#1687,#1688))
REPRESENTATION_CONTEXT('','3D')
);
#1680=(
GEOMETRIC_REPRESENTATION_CONTEXT(3)
GLOBAL_UNCERTAINTY_ASSIGNED_CONTEXT((#1667))
GLOBAL_UNIT_ASSIGNED_CONTEXT((#1685,#1687,#1688))
REPRESENTATION_CONTEXT('','3D')
);
#1681=(
GEOMETRIC_REPRESENTATION_CONTEXT(3)
GLOBAL_UNCERTAINTY_ASSIGNED_CONTEXT((#1668))
GLOBAL_UNIT_ASSIGNED_CONTEXT((#1685,#1687,#1688))
REPRESENTATION_CONTEXT('','3D')
);
#1682=(
GEOMETRIC_REPRESENTATION_CONTEXT(3)
GLOBAL_UNCERTAINTY_ASSIGNED_CONTEXT((#1669))
GLOBAL_UNIT_ASSIGNED_CONTEXT((#1685,#1687,#1688))
REPRESENTATION_CONTEXT('','3D')
);
#1683=(
GEOMETRIC_REPRESENTATION_CONTEXT(3)
GLOBAL_UNCERTAINTY_ASSIGNED_CONTEXT((#1670))
GLOBAL_UNIT_ASSIGNED_CONTEXT((#1685,#1687,#1688))
REPRESENTATION_CONTEXT('','3D')
);
#1684=(
GEOMETRIC_REPRESENTATION_CONTEXT(3)
GLOBAL_UNCERTAINTY_ASSIGNED_CONTEXT((#1671))
GLOBAL_UNIT_ASSIGNED_CONTEXT((#1685,#1687,#1688))
REPRESENTATION_CONTEXT('','3D')
);
#1685=(
LENGTH_UNIT()
NAMED_UNIT(*)
SI_UNIT(.MILLI.,.METRE.)
);
#1686=(
LENGTH_UNIT()
NAMED_UNIT(*)
SI_UNIT($,.METRE.)
);
#1687=(
NAMED_UNIT(*)
PLANE_ANGLE_UNIT()
SI_UNIT($,.RADIAN.)
);
#1688=(
NAMED_UNIT(*)
SI_UNIT($,.STERADIAN.)
SOLID_ANGLE_UNIT()
);
#1689=SHAPE_DEFINITION_REPRESENTATION(#1701,#1742);
#1690=SHAPE_DEFINITION_REPRESENTATION(#1702,#1743);
#1691=SHAPE_DEFINITION_REPRESENTATION(#1703,#1744);
#1692=SHAPE_DEFINITION_REPRESENTATION(#1704,#1745);
#1693=SHAPE_DEFINITION_REPRESENTATION(#1705,#1746);
#1694=SHAPE_DEFINITION_REPRESENTATION(#1706,#1747);
#1695=SHAPE_DEFINITION_REPRESENTATION(#1707,#1748);
#1696=SHAPE_DEFINITION_REPRESENTATION(#1708,#1749);
#1697=SHAPE_DEFINITION_REPRESENTATION(#1709,#1750);
#1698=SHAPE_DEFINITION_REPRESENTATION(#1710,#1751);
#1699=SHAPE_DEFINITION_REPRESENTATION(#1711,#1752);
#1700=SHAPE_DEFINITION_REPRESENTATION(#1712,#1753);
#1701=PRODUCT_DEFINITION_SHAPE('',$,#1755);
#1702=PRODUCT_DEFINITION_SHAPE('',$,#1756);
#1703=PRODUCT_DEFINITION_SHAPE('',$,#1757);
#1704=PRODUCT_DEFINITION_SHAPE('',$,#1758);
#1705=PRODUCT_DEFINITION_SHAPE('',$,#1759);
#1706=PRODUCT_DEFINITION_SHAPE('',$,#1760);
#1707=PRODUCT_DEFINITION_SHAPE('',$,#1761);
#1708=PRODUCT_DEFINITION_SHAPE('',$,#1762);
#1709=PRODUCT_DEFINITION_SHAPE('',$,#1763);
#1710=PRODUCT_DEFINITION_SHAPE('',$,#1764);
#1711=PRODUCT_DEFINITION_SHAPE('',$,#1765);
#1712=PRODUCT_DEFINITION_SHAPE('',$,#1766);
#1713=PRODUCT_DEFINITION_SHAPE($,$,#100);
#1714=PRODUCT_DEFINITION_SHAPE($,$,#101);
#1715=PRODUCT_DEFINITION_SHAPE($,$,#102);
#1716=PRODUCT_DEFINITION_SHAPE($,$,#103);
#1717=PRODUCT_DEFINITION_SHAPE($,$,#104);
#1718=PRODUCT_DEFINITION_SHAPE($,$,#105);
#1719=PRODUCT_DEFINITION_SHAPE($,$,#106);
#1720=PRODUCT_DEFINITION_SHAPE($,$,#107);
#1721=PRODUCT_DEFINITION_SHAPE($,$,#108);
#1722=PRODUCT_DEFINITION_SHAPE($,$,#109);
#1723=PRODUCT_DEFINITION_SHAPE($,$,#110);
#1724=PRODUCT_DEFINITION_SHAPE($,$,#111);
#1725=PRODUCT_DEFINITION_SHAPE($,$,#112);
#1726=PRODUCT_DEFINITION_SHAPE($,$,#113);
#1727=PRODUCT_DEFINITION_SHAPE($,$,#114);
#1728=PRODUCT_DEFINITION_SHAPE($,$,#115);
#1729=PRODUCT_DEFINITION_SHAPE($,$,#116);
#1730=PRODUCT_DEFINITION_SHAPE($,$,#117);
#1731=PRODUCT_DEFINITION_SHAPE($,$,#118);
#1732=PRODUCT_DEFINITION_SHAPE($,$,#119);
#1733=PRODUCT_DEFINITION_SHAPE($,$,#120);
#1734=PRODUCT_DEFINITION_SHAPE($,$,#121);
#1735=PRODUCT_DEFINITION_SHAPE($,$,#122);
#1736=PRODUCT_DEFINITION_SHAPE($,$,#123);
#1737=PRODUCT_DEFINITION_SHAPE($,$,#124);
#1738=PRODUCT_DEFINITION_SHAPE($,$,#125);
#1739=PRODUCT_DEFINITION_SHAPE($,$,#126);
#1740=PRODUCT_DEFINITION_SHAPE($,$,#127);
#1741=PRODUCT_DEFINITION_SHAPE($,$,#128);
#1742=SHAPE_REPRESENTATION('',(#1039,#1095,#1096,#1097,#1098,#1099,#1100,
#1101,#1102,#1103,#1104,#1105,#1106,#1107,#1108,#1109,#1110,#1111,#1112,
#1113,#1114,#1115,#1116,#1117,#1118,#1119,#1120,#1121,#1122,#1123),#1672);
#1743=SHAPE_REPRESENTATION('',(#1040),#1673);
#1744=SHAPE_REPRESENTATION('',(#1041),#1674);
#1745=SHAPE_REPRESENTATION('',(#1042),#1675);
#1746=SHAPE_REPRESENTATION('',(#1043),#1676);
#1747=SHAPE_REPRESENTATION('',(#1044),#1677);
#1748=SHAPE_REPRESENTATION('',(#1045),#1678);
#1749=SHAPE_REPRESENTATION('',(#1046),#1679);
#1750=SHAPE_REPRESENTATION('',(#1047),#1680);
#1751=SHAPE_REPRESENTATION('',(#1048),#1681);
#1752=SHAPE_REPRESENTATION('',(#1049),#1682);
#1753=SHAPE_REPRESENTATION('',(#1050),#1683);
#1754=PRODUCT_DEFINITION_CONTEXT('part definition',#1792,'design');
#1755=PRODUCT_DEFINITION('HexahubV2 1','HexahubV2',#1767,#1754);
#1756=PRODUCT_DEFINITION('SL2.1A','SL2.1A',#1768,#1754);
#1757=PRODUCT_DEFINITION('Crystal_SMD_3225-4Pin_3.2x2.5mm',
'Crystal_SMD_3225-4Pin_3.2x2.5mm',#1769,#1754);
#1758=PRODUCT_DEFINITION('HRO  TYPE-C-31-M-12','HRO  TYPE-C-31-M-12',#1770,
#1754);
#1759=PRODUCT_DEFINITION('HexaHubV2_copper','HexaHubV2_copper',#1771,#1754);
#1760=PRODUCT_DEFINITION('HexaHubV2_PCB','HexaHubV2_PCB',#1772,#1754);
#1761=PRODUCT_DEFINITION('R_0603_1608Metric','R_0603_1608Metric',#1773,
#1754);
#1762=PRODUCT_DEFINITION('C_0402_1005Metric','C_0402_1005Metric',#1774,
#1754);
#1763=PRODUCT_DEFINITION('USB_A_Molex_67643_Horizontal',
'USB_A_Molex_67643_Horizontal',#1775,#1754);
#1764=PRODUCT_DEFINITION('C_0603_1608Metric','C_0603_1608Metric',#1776,
#1754);
#1765=PRODUCT_DEFINITION('SOT-143','SOT-143',#1777,#1754);
#1766=PRODUCT_DEFINITION('Fuse_1206_3216Metric','Fuse_1206_3216Metric',
#1778,#1754);
#1767=PRODUCT_DEFINITION_FORMATION('',$,#1794);
#1768=PRODUCT_DEFINITION_FORMATION('',$,#1795);
#1769=PRODUCT_DEFINITION_FORMATION('',$,#1796);
#1770=PRODUCT_DEFINITION_FORMATION('',$,#1797);
#1771=PRODUCT_DEFINITION_FORMATION('',$,#1798);
#1772=PRODUCT_DEFINITION_FORMATION('',$,#1799);
#1773=PRODUCT_DEFINITION_FORMATION('',$,#1800);
#1774=PRODUCT_DEFINITION_FORMATION('',$,#1801);
#1775=PRODUCT_DEFINITION_FORMATION('',$,#1802);
#1776=PRODUCT_DEFINITION_FORMATION('',$,#1803);
#1777=PRODUCT_DEFINITION_FORMATION('',$,#1804);
#1778=PRODUCT_DEFINITION_FORMATION('',$,#1805);
#1779=PRODUCT_RELATED_PRODUCT_CATEGORY('HexahubV2','HexahubV2',(#1794));
#1780=PRODUCT_RELATED_PRODUCT_CATEGORY('SL2.1A','SL2.1A',(#1795));
#1781=PRODUCT_RELATED_PRODUCT_CATEGORY(
'Crystal_SMD_3225-4Pin_3.2x2.5mm','Crystal_SMD_3225-4Pin_3.2x2.5mm',(#1796));
#1782=PRODUCT_RELATED_PRODUCT_CATEGORY('HRO  TYPE-C-31-M-12',
'HRO  TYPE-C-31-M-12',(#1797));
#1783=PRODUCT_RELATED_PRODUCT_CATEGORY('HexaHubV2_copper',
'HexaHubV2_copper',(#1798));
#1784=PRODUCT_RELATED_PRODUCT_CATEGORY('HexaHubV2_PCB','HexaHubV2_PCB',
(#1799));
#1785=PRODUCT_RELATED_PRODUCT_CATEGORY('R_0603_1608Metric',
'R_0603_1608Metric',(#1800));
#1786=PRODUCT_RELATED_PRODUCT_CATEGORY('C_0402_1005Metric',
'C_0402_1005Metric',(#1801));
#1787=PRODUCT_RELATED_PRODUCT_CATEGORY('USB_A_Molex_67643_Horizontal',
'USB_A_Molex_67643_Horizontal',(#1802));
#1788=PRODUCT_RELATED_PRODUCT_CATEGORY('C_0603_1608Metric',
'C_0603_1608Metric',(#1803));
#1789=PRODUCT_RELATED_PRODUCT_CATEGORY('SOT-143','SOT-143',(#1804));
#1790=PRODUCT_RELATED_PRODUCT_CATEGORY('Fuse_1206_3216Metric',
'Fuse_1206_3216Metric',(#1805));
#1791=APPLICATION_PROTOCOL_DEFINITION('international standard',
'automotive_design',2009,#1792);
#1792=APPLICATION_CONTEXT(
'Core Data for Automotive Mechanical Design Process');
#1793=PRODUCT_CONTEXT('part definition',#1792,'mechanical');
#1794=PRODUCT('HexahubV2 1','HexahubV2','KiCad electronic assembly',(#1793));
#1795=PRODUCT('SL2.1A','SL2.1A',$,(#1793));
#1796=PRODUCT('Crystal_SMD_3225-4Pin_3.2x2.5mm',
'Crystal_SMD_3225-4Pin_3.2x2.5mm',$,(#1793));
#1797=PRODUCT('HRO  TYPE-C-31-M-12','HRO  TYPE-C-31-M-12',$,(#1793));
#1798=PRODUCT('HexaHubV2_copper','HexaHubV2_copper',$,(#1793));
#1799=PRODUCT('HexaHubV2_PCB','HexaHubV2_PCB',$,(#1793));
#1800=PRODUCT('R_0603_1608Metric','R_0603_1608Metric',$,(#1793));
#1801=PRODUCT('C_0402_1005Metric','C_0402_1005Metric',$,(#1793));
#1802=PRODUCT('USB_A_Molex_67643_Horizontal',
'USB_A_Molex_67643_Horizontal',$,(#1793));
#1803=PRODUCT('C_0603_1608Metric','C_0603_1608Metric',$,(#1793));
#1804=PRODUCT('SOT-143','SOT-143',$,(#1793));
#1805=PRODUCT('Fuse_1206_3216Metric','Fuse_1206_3216Metric',$,(#1793));
#1806=PRESENTATION_STYLE_ASSIGNMENT((#1825));
#1807=PRESENTATION_STYLE_ASSIGNMENT((#1826));
#1808=PRESENTATION_STYLE_ASSIGNMENT((#1827));
#1809=PRESENTATION_STYLE_ASSIGNMENT((#1828));
#1810=PRESENTATION_STYLE_ASSIGNMENT((#1829));
#1811=PRESENTATION_STYLE_ASSIGNMENT((#1830));
#1812=PRESENTATION_STYLE_ASSIGNMENT((#1831));
#1813=PRESENTATION_STYLE_ASSIGNMENT((#1832));
#1814=PRESENTATION_STYLE_ASSIGNMENT((#1833));
#1815=PRESENTATION_STYLE_ASSIGNMENT((#1834));
#1816=PRESENTATION_STYLE_ASSIGNMENT((#1835));
#1817=PRESENTATION_STYLE_ASSIGNMENT((#1836));
#1818=PRESENTATION_STYLE_ASSIGNMENT((#1837));
#1819=PRESENTATION_STYLE_ASSIGNMENT((#1838));
#1820=PRESENTATION_STYLE_ASSIGNMENT((#1839));
#1821=PRESENTATION_STYLE_ASSIGNMENT((#1840));
#1822=PRESENTATION_STYLE_ASSIGNMENT((#1841));
#1823=PRESENTATION_STYLE_ASSIGNMENT((#1842));
#1824=PRESENTATION_STYLE_ASSIGNMENT((#1843));
#1825=SURFACE_STYLE_USAGE(.BOTH.,#1844);
#1826=SURFACE_STYLE_USAGE(.BOTH.,#1845);
#1827=SURFACE_STYLE_USAGE(.BOTH.,#1846);
#1828=SURFACE_STYLE_USAGE(.BOTH.,#1847);
#1829=SURFACE_STYLE_USAGE(.BOTH.,#1848);
#1830=SURFACE_STYLE_USAGE(.BOTH.,#1849);
#1831=SURFACE_STYLE_USAGE(.BOTH.,#1850);
#1832=SURFACE_STYLE_USAGE(.BOTH.,#1851);
#1833=SURFACE_STYLE_USAGE(.BOTH.,#1852);
#1834=SURFACE_STYLE_USAGE(.BOTH.,#1853);
#1835=SURFACE_STYLE_USAGE(.BOTH.,#1854);
#1836=SURFACE_STYLE_USAGE(.BOTH.,#1855);
#1837=SURFACE_STYLE_USAGE(.BOTH.,#1856);
#1838=SURFACE_STYLE_USAGE(.BOTH.,#1857);
#1839=SURFACE_STYLE_USAGE(.BOTH.,#1858);
#1840=SURFACE_STYLE_USAGE(.BOTH.,#1859);
#1841=SURFACE_STYLE_USAGE(.BOTH.,#1860);
#1842=SURFACE_STYLE_USAGE(.BOTH.,#1861);
#1843=SURFACE_STYLE_USAGE(.BOTH.,#1862);
#1844=SURFACE_SIDE_STYLE('',(#1863));
#1845=SURFACE_SIDE_STYLE('',(#1864));
#1846=SURFACE_SIDE_STYLE('',(#1865));
#1847=SURFACE_SIDE_STYLE('',(#1866));
#1848=SURFACE_SIDE_STYLE('',(#1867));
#1849=SURFACE_SIDE_STYLE('',(#1868));
#1850=SURFACE_SIDE_STYLE('',(#1869));
#1851=SURFACE_SIDE_STYLE('',(#1870));
#1852=SURFACE_SIDE_STYLE('',(#1871));
#1853=SURFACE_SIDE_STYLE('',(#1872));
#1854=SURFACE_SIDE_STYLE('',(#1873));
#1855=SURFACE_SIDE_STYLE('',(#1874));
#1856=SURFACE_SIDE_STYLE('',(#1875));
#1857=SURFACE_SIDE_STYLE('',(#1876));
#1858=SURFACE_SIDE_STYLE('',(#1877));
#1859=SURFACE_SIDE_STYLE('',(#1878));
#1860=SURFACE_SIDE_STYLE('',(#1879));
#1861=SURFACE_SIDE_STYLE('',(#1880));
#1862=SURFACE_SIDE_STYLE('',(#1881));
#1863=SURFACE_STYLE_FILL_AREA(#1882);
#1864=SURFACE_STYLE_FILL_AREA(#1883);
#1865=SURFACE_STYLE_FILL_AREA(#1884);
#1866=SURFACE_STYLE_FILL_AREA(#1885);
#1867=SURFACE_STYLE_FILL_AREA(#1886);
#1868=SURFACE_STYLE_FILL_AREA(#1887);
#1869=SURFACE_STYLE_FILL_AREA(#1888);
#1870=SURFACE_STYLE_FILL_AREA(#1889);
#1871=SURFACE_STYLE_FILL_AREA(#1890);
#1872=SURFACE_STYLE_FILL_AREA(#1891);
#1873=SURFACE_STYLE_FILL_AREA(#1892);
#1874=SURFACE_STYLE_FILL_AREA(#1893);
#1875=SURFACE_STYLE_FILL_AREA(#1894);
#1876=SURFACE_STYLE_FILL_AREA(#1895);
#1877=SURFACE_STYLE_FILL_AREA(#1896);
#1878=SURFACE_STYLE_FILL_AREA(#1897);
#1879=SURFACE_STYLE_FILL_AREA(#1898);
#1880=SURFACE_STYLE_FILL_AREA(#1899);
#1881=SURFACE_STYLE_FILL_AREA(#1900);
#1882=FILL_AREA_STYLE('Steel - Satin',(#1901));
#1883=FILL_AREA_STYLE('Plastic - Matte (Black)',(#1902));
#1884=FILL_AREA_STYLE('Base material - Transparent',(#1903));
#1885=FILL_AREA_STYLE('Opaque(202,209,238)',(#1904));
#1886=FILL_AREA_STYLE('Opaque(64,64,64)',(#1905));
#1887=FILL_AREA_STYLE('Opaque(255,255,255)',(#1906));
#1888=FILL_AREA_STYLE('Opaque(210,209,199)',(#1907));
#1889=FILL_AREA_STYLE('Opaque(219,188,126)',(#1908));
#1890=FILL_AREA_STYLE('Opaque(41,41,41)',(#1909));
#1891=FILL_AREA_STYLE('Opaque(160,160,160)',(#1910));
#1892=FILL_AREA_STYLE('Opaque(218,205,0)',(#1911));
#1893=FILL_AREA_STYLE('Opaque(80,124,105)',(#1912));
#1894=FILL_AREA_STYLE('Opaque(228,227,207)',(#1913));
#1895=FILL_AREA_STYLE('Opaque(21,22,24)',(#1914));
#1896=FILL_AREA_STYLE('Opaque(97,69,55)',(#1915));
#1897=FILL_AREA_STYLE('Opaque(204,204,204)',(#1916));
#1898=FILL_AREA_STYLE('Opaque(129,129,129)',(#1917));
#1899=FILL_AREA_STYLE('Opaque(38,37,37)',(#1918));
#1900=FILL_AREA_STYLE('Opaque(176,169,152)',(#1919));
#1901=FILL_AREA_STYLE_COLOUR('Steel - Satin',#1920);
#1902=FILL_AREA_STYLE_COLOUR('Plastic - Matte (Black)',#1921);
#1903=FILL_AREA_STYLE_COLOUR('Base material - Transparent',#1922);
#1904=FILL_AREA_STYLE_COLOUR('Opaque(202,209,238)',#1923);
#1905=FILL_AREA_STYLE_COLOUR('Opaque(64,64,64)',#1924);
#1906=FILL_AREA_STYLE_COLOUR('Opaque(255,255,255)',#1925);
#1907=FILL_AREA_STYLE_COLOUR('Opaque(210,209,199)',#1926);
#1908=FILL_AREA_STYLE_COLOUR('Opaque(219,188,126)',#1927);
#1909=FILL_AREA_STYLE_COLOUR('Opaque(41,41,41)',#1928);
#1910=FILL_AREA_STYLE_COLOUR('Opaque(160,160,160)',#1929);
#1911=FILL_AREA_STYLE_COLOUR('Opaque(218,205,0)',#1930);
#1912=FILL_AREA_STYLE_COLOUR('Opaque(80,124,105)',#1931);
#1913=FILL_AREA_STYLE_COLOUR('Opaque(228,227,207)',#1932);
#1914=FILL_AREA_STYLE_COLOUR('Opaque(21,22,24)',#1933);
#1915=FILL_AREA_STYLE_COLOUR('Opaque(97,69,55)',#1934);
#1916=FILL_AREA_STYLE_COLOUR('Opaque(204,204,204)',#1935);
#1917=FILL_AREA_STYLE_COLOUR('Opaque(129,129,129)',#1936);
#1918=FILL_AREA_STYLE_COLOUR('Opaque(38,37,37)',#1937);
#1919=FILL_AREA_STYLE_COLOUR('Opaque(176,169,152)',#1938);
#1920=COLOUR_RGB('Steel - Satin',0.627450980392157,0.627450980392157,0.627450980392157);
#1921=COLOUR_RGB('Plastic - Matte (Black)',0.0980392156862745,0.0980392156862745,
0.0980392156862745);
#1922=COLOUR_RGB('Base material - Transparent',0.701960784313725,0.701960784313725,
0.701960784313725);
#1923=COLOUR_RGB('Opaque(202,209,238)',0.792156862745098,0.819607843137255,
0.933333333333333);
#1924=COLOUR_RGB('Opaque(64,64,64)',0.250980392156863,0.250980392156863,
0.250980392156863);
#1925=COLOUR_RGB('Opaque(255,255,255)',1.,1.,1.);
#1926=COLOUR_RGB('Opaque(210,209,199)',0.823529411764706,0.819607843137255,
0.780392156862745);
#1927=COLOUR_RGB('Opaque(219,188,126)',0.858823529411765,0.737254901960784,
0.494117647058824);
#1928=COLOUR_RGB('Opaque(41,41,41)',0.16078431372549,0.16078431372549,0.16078431372549);
#1929=COLOUR_RGB('Opaque(160,160,160)',0.627450980392157,0.627450980392157,
0.627450980392157);
#1930=COLOUR_RGB('Opaque(218,205,0)',0.854901960784314,0.803921568627451,
0.);
#1931=COLOUR_RGB('Opaque(80,124,105)',0.313725490196078,0.486274509803922,
0.411764705882353);
#1932=COLOUR_RGB('Opaque(228,227,207)',0.894117647058824,0.890196078431372,
0.811764705882353);
#1933=COLOUR_RGB('Opaque(21,22,24)',0.0823529411764706,0.0862745098039216,
0.0941176470588235);
#1934=COLOUR_RGB('Opaque(97,69,55)',0.380392156862745,0.270588235294118,
0.215686274509804);
#1935=COLOUR_RGB('Opaque(204,204,204)',0.8,0.8,0.8);
#1936=COLOUR_RGB('Opaque(129,129,129)',0.505882352941176,0.505882352941176,
0.505882352941176);
#1937=COLOUR_RGB('Opaque(38,37,37)',0.149019607843137,0.145098039215686,
0.145098039215686);
#1938=COLOUR_RGB('Opaque(176,169,152)',0.690196078431373,0.662745098039216,
0.596078431372549);
ENDSEC;
END-ISO-10303-21;
